<?xml version="1.0" encoding="UTF-8" standalone="no"?>
<!-- Created with Inkscape (http://www.inkscape.org/) -->

<svg
   xmlns:dc="http://purl.org/dc/elements/1.1/"
   xmlns:cc="http://creativecommons.org/ns#"
   xmlns:rdf="http://www.w3.org/1999/02/22-rdf-syntax-ns#"
   xmlns:svg="http://www.w3.org/2000/svg"
   xmlns="http://www.w3.org/2000/svg"
   xmlns:xlink="http://www.w3.org/1999/xlink"
   version="1.1"
   width="778.3313"
   height="335.21735"
   id="svg8498">
  <defs
     id="defs3">
    <clipPath
       id="clipPath3828">
      <rect
         width="395.50385"
         height="138.17282"
         ry="18.904718"
         x="-413.25079"
         y="357.69519"
         id="rect3830"
         style="fill:#ff6600;fill-opacity:1;stroke:none" />
    </clipPath>
    <clipPath
       id="clipPath3824">
      <rect
         width="395.50385"
         height="138.17282"
         ry="18.904718"
         x="-413.25079"
         y="357.69519"
         id="rect3826"
         style="fill:#ff6600;fill-opacity:1;stroke:none" />
    </clipPath>
    <clipPath
       id="clipPath8607">
      <rect
         width="395.50385"
         height="138.17282"
         ry="18.904718"
         x="-413.25079"
         y="357.69519"
         id="rect8609"
         style="fill:#ff6600;fill-opacity:1;stroke:none" />
    </clipPath>
    <clipPath
       id="clipPath8611">
      <rect
         width="395.50385"
         height="138.17282"
         ry="18.904718"
         x="-413.25079"
         y="357.69519"
         id="rect8613"
         style="fill:#ff6600;fill-opacity:1;stroke:none" />
    </clipPath>
    <clipPath
       id="clipPath8713">
      <rect
         width="395.50385"
         height="138.17282"
         ry="18.904718"
         x="-413.25079"
         y="357.69519"
         id="rect8715"
         style="fill:#ff6600;fill-opacity:1;stroke:none" />
    </clipPath>
    <clipPath
       id="clipPath8717">
      <rect
         width="395.50385"
         height="138.17282"
         ry="18.904718"
         x="-413.25079"
         y="357.69519"
         id="rect8719"
         style="fill:#ff6600;fill-opacity:1;stroke:none" />
    </clipPath>
    <clipPath
       id="clipPath3828-0">
      <rect
         width="395.50385"
         height="138.17282"
         ry="18.904718"
         x="-413.25079"
         y="357.69519"
         id="rect3830-8"
         style="fill:#ff6600;fill-opacity:1;stroke:none" />
    </clipPath>
    <clipPath
       id="clipPath3824-6">
      <rect
         width="395.50385"
         height="138.17282"
         ry="18.904718"
         x="-413.25079"
         y="357.69519"
         id="rect3826-5"
         style="fill:#ff6600;fill-opacity:1;stroke:none" />
    </clipPath>
    <radialGradient
       cx="-223.22363"
       cy="291.47592"
       r="197.09946"
       fx="-223.22363"
       fy="291.47592"
       id="radialGradient5876"
       xlink:href="#linearGradient5761"
       gradientUnits="userSpaceOnUse"
       gradientTransform="matrix(0.03176436,0.53748937,-0.973804,0.05755026,82.409967,457.17646)" />
    <linearGradient
       id="linearGradient5761">
      <stop
         id="stop5763"
         style="stop-color:#ff7f2a;stop-opacity:1"
         offset="0" />
      <stop
         id="stop5765"
         style="stop-color:#ffcc00;stop-opacity:1"
         offset="1" />
    </linearGradient>
    <clipPath
       id="clipPath9436">
      <rect
         width="395.50385"
         height="138.17282"
         ry="18.904718"
         x="-413.25079"
         y="357.69519"
         id="rect9438"
         style="fill:#ff6600;fill-opacity:1;stroke:none" />
    </clipPath>
    <clipPath
       id="clipPath9529">
      <rect
         width="395.50385"
         height="138.17282"
         ry="18.904718"
         x="-413.25079"
         y="357.69519"
         id="rect9531"
         style="fill:#ff6600;fill-opacity:1;stroke:none" />
    </clipPath>
    <clipPath
       id="clipPath9533">
      <rect
         width="395.50385"
         height="138.17282"
         ry="18.904718"
         x="-413.25079"
         y="357.69519"
         id="rect9535"
         style="fill:#ff6600;fill-opacity:1;stroke:none" />
    </clipPath>
    <clipPath
       id="clipPath3828-7">
      <rect
         width="395.50385"
         height="138.17282"
         ry="18.904718"
         x="-413.25079"
         y="357.69519"
         id="rect3830-4"
         style="fill:#ff6600;fill-opacity:1;stroke:none" />
    </clipPath>
    <clipPath
       id="clipPath3824-3">
      <rect
         width="395.50385"
         height="138.17282"
         ry="18.904718"
         x="-413.25079"
         y="357.69519"
         id="rect3826-3"
         style="fill:#ff6600;fill-opacity:1;stroke:none" />
    </clipPath>
    <clipPath
       id="clipPath10065">
      <rect
         width="395.50385"
         height="138.17282"
         ry="18.904718"
         x="-413.25079"
         y="357.69519"
         id="rect10067"
         style="fill:#ff6600;fill-opacity:1;stroke:none" />
    </clipPath>
    <clipPath
       id="clipPath3828-08">
      <rect
         width="395.50385"
         height="138.17282"
         ry="18.904718"
         x="-413.25079"
         y="357.69519"
         id="rect3830-3"
         style="fill:#ff6600;fill-opacity:1;stroke:none" />
    </clipPath>
    <clipPath
       id="clipPath3824-1">
      <rect
         width="395.50385"
         height="138.17282"
         ry="18.904718"
         x="-413.25079"
         y="357.69519"
         id="rect3826-6"
         style="fill:#ff6600;fill-opacity:1;stroke:none" />
    </clipPath>
    <clipPath
       id="clipPath10471">
      <rect
         width="395.50385"
         height="138.17282"
         ry="18.904718"
         x="-413.25079"
         y="357.69519"
         id="rect10473"
         style="fill:#ff6600;fill-opacity:1;stroke:none" />
    </clipPath>
    <clipPath
       id="clipPath10475">
      <rect
         width="395.50385"
         height="138.17282"
         ry="18.904718"
         x="-413.25079"
         y="357.69519"
         id="rect10477"
         style="fill:#ff6600;fill-opacity:1;stroke:none" />
    </clipPath>
    <clipPath
       id="clipPath10577">
      <rect
         width="395.50385"
         height="138.17282"
         ry="18.904718"
         x="-413.25079"
         y="357.69519"
         id="rect10579"
         style="fill:#ff6600;fill-opacity:1;stroke:none" />
    </clipPath>
    <clipPath
       id="clipPath10581">
      <rect
         width="395.50385"
         height="138.17282"
         ry="18.904718"
         x="-413.25079"
         y="357.69519"
         id="rect10583"
         style="fill:#ff6600;fill-opacity:1;stroke:none" />
    </clipPath>
    <clipPath
       id="clipPath3828-2">
      <rect
         width="395.50385"
         height="138.17282"
         ry="18.904718"
         x="-413.25079"
         y="357.69519"
         id="rect3830-2"
         style="fill:#ff6600;fill-opacity:1;stroke:none" />
    </clipPath>
    <clipPath
       id="clipPath3824-63">
      <rect
         width="395.50385"
         height="138.17282"
         ry="18.904718"
         x="-413.25079"
         y="357.69519"
         id="rect3826-55"
         style="fill:#ff6600;fill-opacity:1;stroke:none" />
    </clipPath>
    <clipPath
       id="clipPath11385">
      <rect
         width="395.50385"
         height="138.17282"
         ry="18.904718"
         x="-413.25079"
         y="357.69519"
         id="rect11387"
         style="fill:#ff6600;fill-opacity:1;stroke:none" />
    </clipPath>
    <clipPath
       id="clipPath11389">
      <rect
         width="395.50385"
         height="138.17282"
         ry="18.904718"
         x="-413.25079"
         y="357.69519"
         id="rect11391"
         style="fill:#ff6600;fill-opacity:1;stroke:none" />
    </clipPath>
    <clipPath
       id="clipPath11491">
      <rect
         width="395.50385"
         height="138.17282"
         ry="18.904718"
         x="-413.25079"
         y="357.69519"
         id="rect11493"
         style="fill:#ff6600;fill-opacity:1;stroke:none" />
    </clipPath>
    <clipPath
       id="clipPath11495">
      <rect
         width="395.50385"
         height="138.17282"
         ry="18.904718"
         x="-413.25079"
         y="357.69519"
         id="rect11497"
         style="fill:#ff6600;fill-opacity:1;stroke:none" />
    </clipPath>
    <clipPath
       id="clipPath3828-1">
      <rect
         width="395.50385"
         height="138.17282"
         ry="18.904718"
         x="-413.25079"
         y="357.69519"
         id="rect3830-7"
         style="fill:#ff6600;fill-opacity:1;stroke:none" />
    </clipPath>
    <clipPath
       id="clipPath3824-5">
      <rect
         width="395.50385"
         height="138.17282"
         ry="18.904718"
         x="-413.25079"
         y="357.69519"
         id="rect3826-9"
         style="fill:#ff6600;fill-opacity:1;stroke:none" />
    </clipPath>
    <clipPath
       id="clipPath12299">
      <rect
         width="395.50385"
         height="138.17282"
         ry="18.904718"
         x="-413.25079"
         y="357.69519"
         id="rect12301"
         style="fill:#ff6600;fill-opacity:1;stroke:none" />
    </clipPath>
    <clipPath
       id="clipPath12303">
      <rect
         width="395.50385"
         height="138.17282"
         ry="18.904718"
         x="-413.25079"
         y="357.69519"
         id="rect12305"
         style="fill:#ff6600;fill-opacity:1;stroke:none" />
    </clipPath>
    <clipPath
       id="clipPath12405">
      <rect
         width="395.50385"
         height="138.17282"
         ry="18.904718"
         x="-413.25079"
         y="357.69519"
         id="rect12407"
         style="fill:#ff6600;fill-opacity:1;stroke:none" />
    </clipPath>
    <clipPath
       id="clipPath12409">
      <rect
         width="395.50385"
         height="138.17282"
         ry="18.904718"
         x="-413.25079"
         y="357.69519"
         id="rect12411"
         style="fill:#ff6600;fill-opacity:1;stroke:none" />
    </clipPath>
    <clipPath
       id="clipPath3828-3">
      <rect
         width="395.50385"
         height="138.17282"
         ry="18.904718"
         x="-413.25079"
         y="357.69519"
         id="rect3830-72"
         style="fill:#ff6600;fill-opacity:1;stroke:none" />
    </clipPath>
    <clipPath
       id="clipPath3824-57">
      <rect
         width="395.50385"
         height="138.17282"
         ry="18.904718"
         x="-413.25079"
         y="357.69519"
         id="rect3826-8"
         style="fill:#ff6600;fill-opacity:1;stroke:none" />
    </clipPath>
    <clipPath
       id="clipPath13213">
      <rect
         width="395.50385"
         height="138.17282"
         ry="18.904718"
         x="-413.25079"
         y="357.69519"
         id="rect13215"
         style="fill:#ff6600;fill-opacity:1;stroke:none" />
    </clipPath>
    <clipPath
       id="clipPath13217">
      <rect
         width="395.50385"
         height="138.17282"
         ry="18.904718"
         x="-413.25079"
         y="357.69519"
         id="rect13219"
         style="fill:#ff6600;fill-opacity:1;stroke:none" />
    </clipPath>
    <clipPath
       id="clipPath13319">
      <rect
         width="395.50385"
         height="138.17282"
         ry="18.904718"
         x="-413.25079"
         y="357.69519"
         id="rect13321"
         style="fill:#ff6600;fill-opacity:1;stroke:none" />
    </clipPath>
    <clipPath
       id="clipPath13323">
      <rect
         width="395.50385"
         height="138.17282"
         ry="18.904718"
         x="-413.25079"
         y="357.69519"
         id="rect13325"
         style="fill:#ff6600;fill-opacity:1;stroke:none" />
    </clipPath>
    <clipPath
       id="clipPath3828-8">
      <rect
         width="395.50385"
         height="138.17282"
         ry="18.904718"
         x="-413.25079"
         y="357.69519"
         id="rect3830-21"
         style="fill:#ff6600;fill-opacity:1;stroke:none" />
    </clipPath>
    <clipPath
       id="clipPath3824-0">
      <rect
         width="395.50385"
         height="138.17282"
         ry="18.904718"
         x="-413.25079"
         y="357.69519"
         id="rect3826-2"
         style="fill:#ff6600;fill-opacity:1;stroke:none" />
    </clipPath>
    <clipPath
       id="clipPath14127">
      <rect
         width="395.50385"
         height="138.17282"
         ry="18.904718"
         x="-413.25079"
         y="357.69519"
         id="rect14129"
         style="fill:#ff6600;fill-opacity:1;stroke:none" />
    </clipPath>
    <clipPath
       id="clipPath14131">
      <rect
         width="395.50385"
         height="138.17282"
         ry="18.904718"
         x="-413.25079"
         y="357.69519"
         id="rect14133"
         style="fill:#ff6600;fill-opacity:1;stroke:none" />
    </clipPath>
    <clipPath
       id="clipPath3828-22">
      <rect
         width="395.50385"
         height="138.17282"
         ry="18.904718"
         x="-413.25079"
         y="357.69519"
         id="rect3830-6"
         style="fill:#ff6600;fill-opacity:1;stroke:none" />
    </clipPath>
    <clipPath
       id="clipPath3824-4">
      <rect
         width="395.50385"
         height="138.17282"
         ry="18.904718"
         x="-413.25079"
         y="357.69519"
         id="rect3826-90"
         style="fill:#ff6600;fill-opacity:1;stroke:none" />
    </clipPath>
    <linearGradient
       id="linearGradient3498-5">
      <stop
         id="stop3500-22"
         style="stop-color:#ffffff;stop-opacity:1"
         offset="0" />
      <stop
         id="stop3502-19"
         style="stop-color:#ffffff;stop-opacity:0"
         offset="1" />
    </linearGradient>
    <linearGradient
       id="linearGradient3142-4">
      <stop
         id="stop3144-0"
         style="stop-color:#000000;stop-opacity:1"
         offset="0" />
      <stop
         id="stop3146-3"
         style="stop-color:#000000;stop-opacity:0"
         offset="1" />
    </linearGradient>
    <linearGradient
       id="linearGradient3163-9">
      <stop
         id="stop3165-1"
         style="stop-color:#f9f9f9;stop-opacity:1"
         offset="0" />
      <stop
         id="stop3167-7"
         style="stop-color:#f9f9f9;stop-opacity:0"
         offset="1" />
    </linearGradient>
    <clipPath
       id="clipPath14737">
      <rect
         width="395.50385"
         height="138.17282"
         ry="18.904718"
         x="-413.25079"
         y="357.69519"
         id="rect14739"
         style="fill:#ff6600;fill-opacity:1;stroke:none" />
    </clipPath>
    <clipPath
       id="clipPath14741">
      <rect
         width="395.50385"
         height="138.17282"
         ry="18.904718"
         x="-413.25079"
         y="357.69519"
         id="rect14743"
         style="fill:#ff6600;fill-opacity:1;stroke:none" />
    </clipPath>
    <radialGradient
       cx="30.423372"
       cy="776.36084"
       r="202.82248"
       fx="30.423372"
       fy="776.36084"
       id="radialGradient15269"
       xlink:href="#linearGradient3498-5"
       gradientUnits="userSpaceOnUse"
       gradientTransform="matrix(0.7497571,-0.01483712,0.00431778,0.21820064,115.81344,605.79787)" />
    <radialGradient
       cx="30.423372"
       cy="776.36084"
       r="202.82248"
       fx="30.423372"
       fy="776.36084"
       id="radialGradient15271"
       xlink:href="#linearGradient3498-5"
       gradientUnits="userSpaceOnUse"
       gradientTransform="matrix(0.7497571,-0.01483712,0.00431778,0.21820064,115.81344,605.79787)" />
    <linearGradient
       x1="262.40158"
       y1="588.40576"
       x2="262.40158"
       y2="620.45441"
       id="linearGradient15273"
       xlink:href="#linearGradient3142-4"
       gradientUnits="userSpaceOnUse"
       gradientTransform="matrix(0.98674174,0,0,1.0365561,-570.74955,-70.130314)" />
    <linearGradient
       x1="262.40158"
       y1="588.40576"
       x2="262.40158"
       y2="619.23151"
       id="linearGradient15275"
       xlink:href="#linearGradient3142-4"
       gradientUnits="userSpaceOnUse"
       gradientTransform="matrix(0.98674174,0,0,1.0365561,82.924309,-1315.4989)" />
    <radialGradient
       cx="21.305288"
       cy="365.37674"
       r="202.82248"
       fx="21.305288"
       fy="365.37674"
       id="radialGradient15277"
       xlink:href="#linearGradient3142-4"
       gradientUnits="userSpaceOnUse"
       gradientTransform="matrix(-0.14374152,-0.00156142,0.00624972,-0.57539678,-126.61891,840.93303)" />
    <radialGradient
       cx="21.305288"
       cy="365.37674"
       r="202.82248"
       fx="21.305288"
       fy="365.37674"
       id="radialGradient15279"
       xlink:href="#linearGradient3142-4"
       gradientUnits="userSpaceOnUse"
       gradientTransform="matrix(-0.14374152,-0.00156142,0.00624972,-0.57539678,527.05492,-404.43553)" />
    <linearGradient
       x1="262.40158"
       y1="588.40576"
       x2="262.40158"
       y2="620.45441"
       id="linearGradient15281"
       xlink:href="#linearGradient3142-4"
       gradientUnits="userSpaceOnUse"
       gradientTransform="matrix(0.98674174,0,0,1.0365561,-570.74955,-70.130314)" />
    <linearGradient
       x1="262.40158"
       y1="588.40576"
       x2="262.40158"
       y2="619.23151"
       id="linearGradient15283"
       xlink:href="#linearGradient3142-4"
       gradientUnits="userSpaceOnUse"
       gradientTransform="matrix(0.98674174,0,0,1.0365561,82.924309,-1315.4989)" />
    <radialGradient
       cx="21.305288"
       cy="365.37674"
       r="202.82248"
       fx="21.305288"
       fy="365.37674"
       id="radialGradient15285"
       xlink:href="#linearGradient3142-4"
       gradientUnits="userSpaceOnUse"
       gradientTransform="matrix(-0.14374152,-0.00156142,0.00624972,-0.57539678,-126.61891,840.93303)" />
    <radialGradient
       cx="21.305288"
       cy="365.37674"
       r="202.82248"
       fx="21.305288"
       fy="365.37674"
       id="radialGradient15287"
       xlink:href="#linearGradient3142-4"
       gradientUnits="userSpaceOnUse"
       gradientTransform="matrix(-0.14374152,-0.00156142,0.00624972,-0.57539678,527.05492,-404.43553)" />
    <linearGradient
       x1="263.66922"
       y1="306.98956"
       x2="263.66922"
       y2="412.20374"
       id="linearGradient15289"
       xlink:href="#linearGradient3163-9"
       gradientUnits="userSpaceOnUse"
       gradientTransform="matrix(1.1389189,0,0,1,-72.089915,5.070562)" />
    <linearGradient
       x1="263.66922"
       y1="235.89346"
       x2="261.44318"
       y2="394.42972"
       id="linearGradient15291"
       xlink:href="#linearGradient3163-9"
       gradientUnits="userSpaceOnUse"
       gradientTransform="matrix(-1.1389189,0,0,-0.28527932,579.93382,531.58446)" />
    <linearGradient
       x1="263.66922"
       y1="306.98956"
       x2="263.66922"
       y2="412.20374"
       id="linearGradient15293"
       xlink:href="#linearGradient3163-9"
       gradientUnits="userSpaceOnUse"
       gradientTransform="matrix(1.1389189,0,0,1,-72.089915,5.070562)" />
    <linearGradient
       x1="263.66922"
       y1="235.89346"
       x2="261.44318"
       y2="394.42972"
       id="linearGradient15295"
       xlink:href="#linearGradient3163-9"
       gradientUnits="userSpaceOnUse"
       gradientTransform="matrix(-1.1389189,0,0,-0.28527932,579.93382,531.58446)" />
    <linearGradient
       x1="263.66922"
       y1="306.98956"
       x2="263.66922"
       y2="412.20374"
       id="linearGradient3435"
       xlink:href="#linearGradient3163"
       gradientUnits="userSpaceOnUse"
       gradientTransform="matrix(1.1389189,0,0,1,-72.089915,5.070562)" />
    <linearGradient
       id="linearGradient3163">
      <stop
         id="stop3165"
         style="stop-color:#f9f9f9;stop-opacity:1"
         offset="0" />
      <stop
         id="stop3167"
         style="stop-color:#f9f9f9;stop-opacity:0"
         offset="1" />
    </linearGradient>
    <linearGradient
       x1="263.66922"
       y1="235.89346"
       x2="261.44318"
       y2="394.42972"
       id="linearGradient3437"
       xlink:href="#linearGradient3163"
       gradientUnits="userSpaceOnUse"
       gradientTransform="matrix(-1.1389189,0,0,-0.28527932,579.93382,531.58446)" />
    <radialGradient
       cx="30.423372"
       cy="776.36084"
       r="202.82248"
       fx="30.423372"
       fy="776.36084"
       id="radialGradient3535"
       xlink:href="#linearGradient3498"
       gradientUnits="userSpaceOnUse"
       gradientTransform="matrix(0.7497571,-0.01483712,0.00431778,0.21820064,115.81344,605.79787)" />
    <linearGradient
       id="linearGradient3498">
      <stop
         id="stop3500"
         style="stop-color:#ffffff;stop-opacity:1"
         offset="0" />
      <stop
         id="stop3502"
         style="stop-color:#ffffff;stop-opacity:0"
         offset="1" />
    </linearGradient>
    <radialGradient
       cx="30.423372"
       cy="776.36084"
       r="202.82248"
       fx="30.423372"
       fy="776.36084"
       id="radialGradient3537"
       xlink:href="#linearGradient3498"
       gradientUnits="userSpaceOnUse"
       gradientTransform="matrix(0.7497571,-0.01483712,0.00431778,0.21820064,115.81344,605.79787)" />
    <linearGradient
       x1="262.40158"
       y1="588.40576"
       x2="262.40158"
       y2="630.23792"
       id="linearGradient3527"
       xlink:href="#linearGradient3142"
       gradientUnits="userSpaceOnUse"
       gradientTransform="translate(-335.92474,-282.68383)" />
    <linearGradient
       id="linearGradient3142">
      <stop
         id="stop3144"
         style="stop-color:#000000;stop-opacity:1"
         offset="0" />
      <stop
         id="stop3146"
         style="stop-color:#000000;stop-opacity:0"
         offset="1" />
    </linearGradient>
    <linearGradient
       x1="262.40158"
       y1="588.40576"
       x2="262.40158"
       y2="630.23792"
       id="linearGradient3529"
       xlink:href="#linearGradient3142"
       gradientUnits="userSpaceOnUse"
       gradientTransform="translate(-158.45508,-1042.6698)" />
    <linearGradient
       x1="262.40158"
       y1="588.40576"
       x2="262.40158"
       y2="630.23792"
       id="linearGradient3531"
       xlink:href="#linearGradient3142"
       gradientUnits="userSpaceOnUse"
       gradientTransform="translate(-335.92474,-282.68383)" />
    <linearGradient
       x1="262.40158"
       y1="588.40576"
       x2="262.40158"
       y2="630.23792"
       id="linearGradient3533"
       xlink:href="#linearGradient3142"
       gradientUnits="userSpaceOnUse"
       gradientTransform="translate(-158.45508,-1042.6698)" />
    <linearGradient
       x1="262.40158"
       y1="588.40576"
       x2="262.40158"
       y2="630.23792"
       id="linearGradient16030"
       xlink:href="#linearGradient3142"
       gradientUnits="userSpaceOnUse"
       gradientTransform="translate(-335.92474,-282.68383)" />
    <linearGradient
       x1="262.40158"
       y1="588.40576"
       x2="262.40158"
       y2="630.23792"
       id="linearGradient16032"
       xlink:href="#linearGradient3142"
       gradientUnits="userSpaceOnUse"
       gradientTransform="translate(-158.45508,-1042.6698)" />
    <linearGradient
       x1="262.40158"
       y1="588.40576"
       x2="262.40158"
       y2="630.23792"
       id="linearGradient16034"
       xlink:href="#linearGradient3142"
       gradientUnits="userSpaceOnUse"
       gradientTransform="translate(-335.92474,-282.68383)" />
    <linearGradient
       x1="262.40158"
       y1="588.40576"
       x2="262.40158"
       y2="630.23792"
       id="linearGradient16036"
       xlink:href="#linearGradient3142"
       gradientUnits="userSpaceOnUse"
       gradientTransform="translate(-158.45508,-1042.6698)" />
    <radialGradient
       cx="30.423372"
       cy="776.36084"
       r="202.82248"
       fx="30.423372"
       fy="776.36084"
       id="radialGradient16038"
       xlink:href="#linearGradient3498"
       gradientUnits="userSpaceOnUse"
       gradientTransform="matrix(0.7497571,-0.01483712,0.00431778,0.21820064,115.81344,605.79787)" />
    <radialGradient
       cx="30.423372"
       cy="776.36084"
       r="202.82248"
       fx="30.423372"
       fy="776.36084"
       id="radialGradient16040"
       xlink:href="#linearGradient3498"
       gradientUnits="userSpaceOnUse"
       gradientTransform="matrix(0.7497571,-0.01483712,0.00431778,0.21820064,115.81344,605.79787)" />
    <linearGradient
       x1="263.66922"
       y1="306.98956"
       x2="263.66922"
       y2="412.20374"
       id="linearGradient16042"
       xlink:href="#linearGradient3163"
       gradientUnits="userSpaceOnUse"
       gradientTransform="matrix(1.1389189,0,0,1,-72.089915,5.070562)" />
    <linearGradient
       x1="263.66922"
       y1="235.89346"
       x2="261.44318"
       y2="394.42972"
       id="linearGradient16044"
       xlink:href="#linearGradient3163"
       gradientUnits="userSpaceOnUse"
       gradientTransform="matrix(-1.1389189,0,0,-0.28527932,579.93382,531.58446)" />
    <linearGradient
       x1="262.40158"
       y1="588.40576"
       x2="262.40158"
       y2="630.23792"
       id="linearGradient16065"
       xlink:href="#linearGradient3142"
       gradientUnits="userSpaceOnUse"
       gradientTransform="translate(-335.92474,-282.68383)" />
    <linearGradient
       x1="262.40158"
       y1="588.40576"
       x2="262.40158"
       y2="630.23792"
       id="linearGradient16067"
       xlink:href="#linearGradient3142"
       gradientUnits="userSpaceOnUse"
       gradientTransform="translate(-158.45508,-1042.6698)" />
    <linearGradient
       x1="262.40158"
       y1="588.40576"
       x2="262.40158"
       y2="630.23792"
       id="linearGradient16069"
       xlink:href="#linearGradient3142"
       gradientUnits="userSpaceOnUse"
       gradientTransform="translate(-335.92474,-282.68383)" />
    <linearGradient
       x1="262.40158"
       y1="588.40576"
       x2="262.40158"
       y2="630.23792"
       id="linearGradient16071"
       xlink:href="#linearGradient3142"
       gradientUnits="userSpaceOnUse"
       gradientTransform="translate(-158.45508,-1042.6698)" />
    <radialGradient
       cx="30.423372"
       cy="776.36084"
       r="202.82248"
       fx="30.423372"
       fy="776.36084"
       id="radialGradient16073"
       xlink:href="#linearGradient3498"
       gradientUnits="userSpaceOnUse"
       gradientTransform="matrix(0.7497571,-0.01483712,0.00431778,0.21820064,115.81344,605.79787)" />
    <radialGradient
       cx="30.423372"
       cy="776.36084"
       r="202.82248"
       fx="30.423372"
       fy="776.36084"
       id="radialGradient16075"
       xlink:href="#linearGradient3498"
       gradientUnits="userSpaceOnUse"
       gradientTransform="matrix(0.7497571,-0.01483712,0.00431778,0.21820064,115.81344,605.79787)" />
    <linearGradient
       x1="263.66922"
       y1="306.98956"
       x2="263.66922"
       y2="412.20374"
       id="linearGradient16077"
       xlink:href="#linearGradient3163"
       gradientUnits="userSpaceOnUse"
       gradientTransform="matrix(1.1389189,0,0,1,-72.089915,5.070562)" />
    <linearGradient
       x1="263.66922"
       y1="235.89346"
       x2="261.44318"
       y2="394.42972"
       id="linearGradient16079"
       xlink:href="#linearGradient3163"
       gradientUnits="userSpaceOnUse"
       gradientTransform="matrix(-1.1389189,0,0,-0.28527932,579.93382,531.58446)" />
    <radialGradient
       cx="30.423372"
       cy="776.36084"
       r="202.82248"
       fx="30.423372"
       fy="776.36084"
       id="radialGradient4076"
       xlink:href="#linearGradient3498-57"
       gradientUnits="userSpaceOnUse"
       gradientTransform="matrix(0.7497571,-0.01483712,0.00431778,0.21820064,115.81344,605.79787)" />
    <linearGradient
       id="linearGradient3498-57">
      <stop
         id="stop3500-3"
         style="stop-color:#ffffff;stop-opacity:1"
         offset="0" />
      <stop
         id="stop3502-4"
         style="stop-color:#ffffff;stop-opacity:0"
         offset="1" />
    </linearGradient>
    <radialGradient
       cx="30.423372"
       cy="776.36084"
       r="202.82248"
       fx="30.423372"
       fy="776.36084"
       id="radialGradient4078"
       xlink:href="#linearGradient3498-57"
       gradientUnits="userSpaceOnUse"
       gradientTransform="matrix(0.7497571,-0.01483712,0.00431778,0.21820064,115.81344,605.79787)" />
    <linearGradient
       x1="262.40158"
       y1="588.40576"
       x2="262.40158"
       y2="620.45441"
       id="linearGradient4080"
       xlink:href="#linearGradient3142-7"
       gradientUnits="userSpaceOnUse"
       gradientTransform="matrix(0.98674174,0,0,1.0365561,-570.74955,-70.130314)" />
    <linearGradient
       id="linearGradient3142-7">
      <stop
         id="stop3144-3"
         style="stop-color:#000000;stop-opacity:1"
         offset="0" />
      <stop
         id="stop3146-1"
         style="stop-color:#000000;stop-opacity:0"
         offset="1" />
    </linearGradient>
    <linearGradient
       x1="262.40158"
       y1="588.40576"
       x2="262.40158"
       y2="619.23151"
       id="linearGradient4082"
       xlink:href="#linearGradient3142-7"
       gradientUnits="userSpaceOnUse"
       gradientTransform="matrix(0.98674174,0,0,1.0365561,82.924309,-1315.4989)" />
    <radialGradient
       cx="21.305288"
       cy="365.37674"
       r="202.82248"
       fx="21.305288"
       fy="365.37674"
       id="radialGradient4084"
       xlink:href="#linearGradient3142-7"
       gradientUnits="userSpaceOnUse"
       gradientTransform="matrix(-0.14374152,-0.00156142,0.00624972,-0.57539678,-126.61891,840.93303)" />
    <radialGradient
       cx="21.305288"
       cy="365.37674"
       r="202.82248"
       fx="21.305288"
       fy="365.37674"
       id="radialGradient4086"
       xlink:href="#linearGradient3142-7"
       gradientUnits="userSpaceOnUse"
       gradientTransform="matrix(-0.14374152,-0.00156142,0.00624972,-0.57539678,527.05492,-404.43553)" />
    <linearGradient
       x1="262.40158"
       y1="588.40576"
       x2="262.40158"
       y2="620.45441"
       id="linearGradient4088"
       xlink:href="#linearGradient3142-7"
       gradientUnits="userSpaceOnUse"
       gradientTransform="matrix(0.98674174,0,0,1.0365561,-570.74955,-70.130314)" />
    <linearGradient
       x1="262.40158"
       y1="588.40576"
       x2="262.40158"
       y2="619.23151"
       id="linearGradient4090"
       xlink:href="#linearGradient3142-7"
       gradientUnits="userSpaceOnUse"
       gradientTransform="matrix(0.98674174,0,0,1.0365561,82.924309,-1315.4989)" />
    <radialGradient
       cx="21.305288"
       cy="365.37674"
       r="202.82248"
       fx="21.305288"
       fy="365.37674"
       id="radialGradient4092"
       xlink:href="#linearGradient3142-7"
       gradientUnits="userSpaceOnUse"
       gradientTransform="matrix(-0.14374152,-0.00156142,0.00624972,-0.57539678,-126.61891,840.93303)" />
    <radialGradient
       cx="21.305288"
       cy="365.37674"
       r="202.82248"
       fx="21.305288"
       fy="365.37674"
       id="radialGradient4094"
       xlink:href="#linearGradient3142-7"
       gradientUnits="userSpaceOnUse"
       gradientTransform="matrix(-0.14374152,-0.00156142,0.00624972,-0.57539678,527.05492,-404.43553)" />
    <linearGradient
       x1="263.66922"
       y1="306.98956"
       x2="263.66922"
       y2="412.20374"
       id="linearGradient4096"
       xlink:href="#linearGradient3163-94"
       gradientUnits="userSpaceOnUse"
       gradientTransform="matrix(1.1389189,0,0,1,-72.089915,5.070562)" />
    <linearGradient
       id="linearGradient3163-94">
      <stop
         id="stop3165-3"
         style="stop-color:#f9f9f9;stop-opacity:1"
         offset="0" />
      <stop
         id="stop3167-0"
         style="stop-color:#f9f9f9;stop-opacity:0"
         offset="1" />
    </linearGradient>
    <linearGradient
       x1="263.66922"
       y1="235.89346"
       x2="261.44318"
       y2="394.42972"
       id="linearGradient4098"
       xlink:href="#linearGradient3163-94"
       gradientUnits="userSpaceOnUse"
       gradientTransform="matrix(-1.1389189,0,0,-0.28527932,579.93382,531.58446)" />
    <linearGradient
       x1="263.66922"
       y1="306.98956"
       x2="263.66922"
       y2="412.20374"
       id="linearGradient4192"
       xlink:href="#linearGradient3163-94"
       gradientUnits="userSpaceOnUse"
       gradientTransform="matrix(1.1389189,0,0,1,-72.089915,5.070562)" />
    <linearGradient
       x1="263.66922"
       y1="235.89346"
       x2="261.44318"
       y2="394.42972"
       id="linearGradient4194"
       xlink:href="#linearGradient3163-94"
       gradientUnits="userSpaceOnUse"
       gradientTransform="matrix(-1.1389189,0,0,-0.28527932,579.93382,531.58446)" />
  </defs>
  <metadata
     id="metadata4">
    <rdf:RDF>
      <cc:Work
         rdf:about="">
        <dc:format>image/svg+xml</dc:format>
        <dc:type
           rdf:resource="http://purl.org/dc/dcmitype/StillImage" />
        <dc:title></dc:title>
      </cc:Work>
    </rdf:RDF>
  </metadata>
  <g
     transform="translate(-52.450449,-20.028242)"
     id="layer1">
    <g
       transform="matrix(1.8420215,0,0,1.8420215,-234.32516,-77.650591)"
       id="g16081">
      <g
         transform="translate(107.50945,-3.4201677)"
         id="g3632">
        <path
           d="m 145.39896,147.36695 68.49453,-68.5 7.5,0 7.5,0 -68.49453,68.5 -68.494539,68.5 -7.5,0 -7.5,0 68.494539,-68.5 z m 30,0 68.49453,-68.5 7.5,0 7.5,0 -68.49453,68.5 -68.49453,68.5 -7.5,0 -7.5,0 68.49453,-68.5 z m 30,0 68.49453,-68.5 7.5,0 7.5,0 -68.49453,68.5 -68.49453,68.5 -7.5,0 -7.5,0 68.49453,-68.5 z m 30,0 68.49453,-68.5 7.5,0 7.5,0 -68.49453,68.5 -68.49453,68.5 -7.5,0 -7.5,0 68.49453,-68.5 z m 30,0 68.49453,-68.5 7.5,0 7.5,0 -68.49453,68.5 -68.49453,68.5 -7.5,0 -7.5,0 68.49453,-68.5 z m 30,0 68.49453,-68.5 7.5,0 7.5,0 -68.49453,68.5 -68.49453,68.5 -7.5,0 -7.5,0 68.49453,-68.5 z m 30,0 68.49453,-68.5 7.5,0 7.5,0 -68.49453,68.5 -68.49453,68.5 -7.5,0 -7.5,0 68.49453,-68.5 z m 30,0 68.49453,-68.5 7.5,0 7.5,0 -68.49453,68.5 -68.49453,68.5 -7.5,0 -7.5,0 68.49453,-68.5 z m 30,0 c 37.67199,-37.675 69.05826,-68.5 69.74726,-68.5 0.87009,0 1.25274,1.90998 1.25274,6.253 l 0,6.253 -62.25298,62.247 -62.25297,62.247 -7.49429,0 -7.49429,0 68.49453,-68.5 z m 16.00344,13.99041 54.49656,-54.50959 0.29781,7.20787 0.29781,7.20786 -47.29386,47.30172 -47.29387,47.30173 -7.5005,0 -7.50051,0 54.49656,-54.50959 z m 15.00131,14.9987 39.49525,-39.5109 0.29778,7.20742 0.29777,7.20742 -32.292,32.30347 -32.29201,32.30348 -7.50102,0 -7.50103,0 39.49526,-39.51089 z m 15.0029,14.99708 24.49235,-24.5138 0.29768,7.20564 0.29768,7.20564 -17.28696,17.30817 -17.28697,17.30816 -7.50306,0 -7.50306,0 24.49234,-24.51381 z m 15.0121,14.98782 9.48025,-9.52599 0.29655,7.16198 c 0.2591,6.25723 0.016,7.46063 -1.92431,9.52599 -1.95482,2.08082 -3.12602,2.36401 -9.7768,2.36401 l -7.55594,0 9.48025,-9.52599 z m -384.019763,1.52016 0,-7.50032 60.800893,-60.79475 60.80088,-60.79476 7.20803,0.29783 7.20802,0.29783 -68.00891,67.99724 -68.008913,67.99725 0,-7.50032 z m 0,-30.00178 0,-7.50054 45.801863,-45.79374 45.80185,-45.79373 7.20783,0.29781 7.20784,0.29781 -53.00969,52.99646 -53.009693,52.99646 0,-7.50053 z m 0,-30.00337 0,-7.50112 30.803744,-30.79172 30.803749,-30.79172 7.20734,0.29777 7.20734,0.29777 -38.01108,37.99507 -38.011093,37.99506 0,-7.50111 z m 0,-30.00889 0,-7.50357 15.809104,-15.78594 15.8091,-15.78595 7.205219,0.29767 7.2052,0.29766 -23.014319,22.99185 -23.014304,22.99184 0,-7.50356 z m 0,-30.28497 c 0,-5.58811 0.377364,-7.90274 1.349214,-8.27567 0.74207,-0.28476 4.35572,-0.38314 8.03033,-0.21862 l 6.68111,0.29913 -8.03033,7.97654 -8.030324,7.97654 0,-7.75792 z"
           id="path3541"
           style="fill:#aa4400" />
        <path
           d="m 130.64621,147.36694 68.49453,-68.499999 7.5,0 7.5,0 -68.49453,68.499999 -68.494537,68.5 -7.5,0 -7.499999,0 68.494536,-68.5 z m 30,0 68.49453,-68.499999 7.5,0 7.5,0 -68.49453,68.499999 -68.49453,68.5 -7.500014,0 -7.49999,0 68.494534,-68.5 z m 30,0 68.49453,-68.499999 7.5,0 7.5,0 -68.49453,68.499999 -68.49453,68.5 -7.5,0 -7.5,0 68.49453,-68.5 z m 30,0 68.49453,-68.499999 7.5,0 7.5,0 -68.49453,68.499999 -68.49453,68.5 -7.5,0 -7.5,0 68.49453,-68.5 z m 30,0 68.49453,-68.499999 7.5,0 7.5,0 -68.49453,68.499999 -68.49453,68.5 -7.5,0 -7.5,0 68.49453,-68.5 z m 30,0 68.49453,-68.499999 7.5,0 7.5,0 -68.49453,68.499999 -68.49453,68.5 -7.5,0 -7.5,0 68.49453,-68.5 z m 30,0 68.49453,-68.499999 7.5,0 7.5,0 -68.49453,68.499999 -68.49453,68.5 -7.5,0 -7.5,0 68.49453,-68.5 z m 30,0 68.49453,-68.499999 7.5,0 7.5,0 -68.49453,68.499999 -68.49453,68.5 -7.5,0 -7.5,0 68.49453,-68.5 z m 30,0 68.49453,-68.499999 7.5,0 7.5,0 -68.49453,68.499999 -68.49453,68.5 -7.5,0 -7.5,0 68.49453,-68.5 z m 23.50302,6.49083 61.99698,-62.009169 0.29782,7.207959 0.29782,7.20797 -54.79441,54.8012 -54.79441,54.80121 -7.50039,0 -7.50038,0 61.99697,-62.00917 z m 15.00097,14.99903 46.99601,-47.01014 0.2978,7.2077 0.29779,7.2077 -39.79311,39.80244 -39.7931,39.80244 -7.5007,0 -7.5007,0 46.99601,-47.01014 z m 15.00187,14.99813 31.99414,-32.01201 0.29774,7.20688 0.29775,7.20689 -24.79025,24.80512 -24.79024,24.80513 -7.50164,0 -7.50164,0 31.99414,-32.01201 z m 15.00517,14.99482 16.98897,-17.0172 0.29753,7.20159 0.29753,7.2016 -9.77877,9.8156 -9.77877,9.8156 -7.50773,0 -7.50773,0 16.98897,-17.01719 z m 14.98897,15.01719 c 0.99549,-1.1 1.96523,-2 2.15499,-2 0.18975,0 0.34501,0.9 0.34501,2 0,1.38128 -0.66667,2 -2.15499,2 -2.09164,0 -2.10178,-0.0588 -0.34501,-2 z m -391.500011,-21.0066 0,-7.50041 53.301301,-53.29432 53.30131,-53.294309 7.20795,0.29782 7.20794,0.29782 -60.50925,60.496899 -60.509251,60.4969 0,-7.5004 z m 0,-30.00239 0,-7.50075 38.302621,-38.29292 38.30261,-38.292929 7.20766,0.2978 7.20765,0.29779 -45.51027,45.495879 -45.510271,45.49588 0,-7.50075 z m 0,-30.00514 0,-7.50183 23.305584,-23.28975 23.305587,-23.289759 7.20671,0.29774 7.20672,0.29773 -30.512304,30.493849 -30.512297,30.49385 0,-7.50183 z m 0,-30.02005 0,-7.509979 8.318604,-8.27539 8.31861,-8.27539 7.19966,0.29747 7.199663,0.29747 -15.518273,15.4879 -15.518264,15.487899 0,-7.50998 z"
           id="path3543"
           style="fill:#ff6600" />
      </g>
      <rect
         width="405.64496"
         height="149.35332"
         ry="12.123334"
         x="164.13374"
         y="69.22229"
         id="rect3545"
         style="opacity:0.33000004;fill:#ff6600;fill-opacity:1;stroke:none" />
      <g
         transform="matrix(1.031856,0,0,1.0784752,-40.216235,-743.64747)"
         id="g4241">
        <g
           transform="matrix(0.95984648,0,0,0.90010573,169.90774,-232.71612)"
           id="g3779"
           style="opacity:0.66000001">
          <g
             transform="matrix(0.96685437,0,0,0.92197935,96.41794,457.87028)"
             id="g3559">
            <rect
               width="405.64496"
               height="149.35332"
               ry="12.123334"
               x="-59.579105"
               y="702.08777"
               id="rect3561"
               style="opacity:0.33000004;fill:url(#radialGradient4076);fill-opacity:1;stroke:none" />
            <rect
               width="405.64496"
               height="149.35332"
               ry="12.123334"
               x="-59.579105"
               y="702.08777"
               id="rect3563"
               style="opacity:0.33000004;fill:url(#radialGradient4078);fill-opacity:1;stroke:none" />
          </g>
          <g
             transform="translate(532.40901,559.02947)"
             id="g3751">
            <g
               transform="matrix(1.025336,0,0,0.98362361,36.802617,1.3238442)"
               id="g3719">
              <rect
                 width="400.26682"
                 height="154.8131"
                 ry="12.566516"
                 x="-526.97034"
                 y="545.27777"
                 id="rect3555"
                 style="opacity:0.55;fill:url(#linearGradient4080);fill-opacity:1;stroke:none" />
              <rect
                 width="400.26682"
                 height="154.8131"
                 ry="12.566516"
                 x="126.70351"
                 y="-700.09082"
                 transform="scale(-1,-1)"
                 id="rect3557"
                 style="opacity:0.55;fill:url(#linearGradient4082);fill-opacity:1;stroke:none" />
              <rect
                 width="400.26682"
                 height="154.8131"
                 ry="12.566516"
                 x="-526.97034"
                 y="545.27777"
                 id="rect3675"
                 style="opacity:0.55;fill:url(#radialGradient4084);fill-opacity:1;stroke:none" />
              <rect
                 width="400.26682"
                 height="154.8131"
                 ry="12.566516"
                 x="126.70351"
                 y="-700.09082"
                 transform="scale(-1,-1)"
                 id="rect3679"
                 style="opacity:0.55;fill:url(#radialGradient4086);fill-opacity:1;stroke:none" />
            </g>
            <g
               transform="matrix(1.025336,0,0,0.98362361,36.802617,1.3238442)"
               id="g3733">
              <rect
                 width="400.26682"
                 height="154.8131"
                 ry="12.566516"
                 x="-526.97034"
                 y="545.27777"
                 id="rect3735"
                 style="opacity:0.55;fill:url(#linearGradient4088);fill-opacity:1;stroke:none" />
              <rect
                 width="400.26682"
                 height="154.8131"
                 ry="12.566516"
                 x="126.70351"
                 y="-700.09082"
                 transform="scale(-1,-1)"
                 id="rect3737"
                 style="opacity:0.55;fill:url(#linearGradient4090);fill-opacity:1;stroke:none" />
              <rect
                 width="400.26682"
                 height="154.8131"
                 ry="12.566516"
                 x="-526.97034"
                 y="545.27777"
                 id="rect3739"
                 style="opacity:0.55;fill:url(#radialGradient4092);fill-opacity:1;stroke:none" />
              <rect
                 width="400.26682"
                 height="154.8131"
                 ry="12.566516"
                 x="126.70351"
                 y="-700.09082"
                 transform="scale(-1,-1)"
                 id="rect3741"
                 style="opacity:0.55;fill:url(#radialGradient4094);fill-opacity:1;stroke:none" />
            </g>
          </g>
          <g
             transform="translate(-19.456709,793.81513)"
             id="g3565">
            <path
               d="m 395.82779,320.50806 c -102.70357,2.98901 -205.95937,-2.94766 -308.575836,3.15625 -16.190643,4.00145 -19.320836,24.05014 -10.001131,34.875 9.793746,11.43814 28.045977,9.27286 42.269407,12.30669 100.01778,13.4982 201.98787,11.91246 302.36033,3.03706 16.73402,-8.63312 17.41036,-30.58485 7.15384,-43.59375 -7.76556,-8.63404 -21.44154,-10.13861 -33.20661,-9.78125 z"
               id="path3567"
               style="fill:url(#linearGradient4096);fill-opacity:1;stroke:none" />
            <path
               d="m 112.01612,441.59667 c 102.70357,-0.85271 205.95937,0.8409 308.57584,-0.90042 16.19064,-1.14153 19.32083,-6.861 10.00113,-9.94911 -9.79375,-3.26307 -28.04598,-2.64536 -42.26941,-3.51085 -100.01778,-3.85075 -201.98787,-3.39838 -302.36033,-0.86641 -16.73402,2.46285 -17.41036,8.72523 -7.15384,12.4364 7.76556,2.46311 21.44154,2.89233 33.20661,2.79039 z"
               id="path3569"
               style="fill:url(#linearGradient4098);fill-opacity:1;stroke:none" />
          </g>
        </g>
        <g
           transform="matrix(0.95984648,0,0,0.90010573,150.87591,481.89348)"
           id="g3912"
           style="opacity:0.66000001">
          <path
             d="m 395.82779,320.50806 c -102.70357,2.98901 -205.95937,-2.94766 -308.575836,3.15625 -16.190643,4.00145 -19.320836,24.05014 -10.001131,34.875 9.793746,11.43814 28.045977,9.27286 42.269407,12.30669 100.01778,13.4982 201.98787,11.91246 302.36033,3.03706 16.73402,-8.63312 17.41036,-30.58485 7.15384,-43.59375 -7.76556,-8.63404 -21.44154,-10.13861 -33.20661,-9.78125 z"
             id="path3914"
             style="fill:url(#linearGradient4192);fill-opacity:1;stroke:none" />
          <path
             d="m 112.01612,441.59667 c 102.70357,-0.85271 205.95937,0.8409 308.57584,-0.90042 16.19064,-1.14153 19.32083,-6.861 10.00113,-9.94911 -9.79375,-3.26307 -28.04598,-2.64536 -42.26941,-3.51085 -100.01778,-3.85075 -201.98787,-3.39838 -302.36033,-0.86641 -16.73402,2.46285 -17.41036,8.72523 -7.15384,12.4364 7.76556,2.46311 21.44154,2.89233 33.20661,2.79039 z"
             id="path3916"
             style="fill:url(#linearGradient4194);fill-opacity:1;stroke:none" />
        </g>
      </g>
    </g>
  </g>
</svg>
