<?xml version="1.0" encoding="UTF-8" standalone="no"?>
<!-- Created with Inkscape (http://www.inkscape.org/) -->

<svg
   xmlns:dc="http://purl.org/dc/elements/1.1/"
   xmlns:cc="http://creativecommons.org/ns#"
   xmlns:rdf="http://www.w3.org/1999/02/22-rdf-syntax-ns#"
   xmlns:svg="http://www.w3.org/2000/svg"
   xmlns="http://www.w3.org/2000/svg"
   xmlns:xlink="http://www.w3.org/1999/xlink"
   version="1.1"
   width="698.46082"
   height="822.44147"
   id="svg8498">
  <defs
     id="defs3">
    <clipPath
       id="clipPath3828">
      <rect
         width="395.50385"
         height="138.17282"
         ry="18.904718"
         x="-413.25079"
         y="357.69519"
         id="rect3830"
         style="fill:#ff6600;fill-opacity:1;stroke:none" />
    </clipPath>
    <clipPath
       id="clipPath3824">
      <rect
         width="395.50385"
         height="138.17282"
         ry="18.904718"
         x="-413.25079"
         y="357.69519"
         id="rect3826"
         style="fill:#ff6600;fill-opacity:1;stroke:none" />
    </clipPath>
    <clipPath
       id="clipPath8607">
      <rect
         width="395.50385"
         height="138.17282"
         ry="18.904718"
         x="-413.25079"
         y="357.69519"
         id="rect8609"
         style="fill:#ff6600;fill-opacity:1;stroke:none" />
    </clipPath>
    <clipPath
       id="clipPath8611">
      <rect
         width="395.50385"
         height="138.17282"
         ry="18.904718"
         x="-413.25079"
         y="357.69519"
         id="rect8613"
         style="fill:#ff6600;fill-opacity:1;stroke:none" />
    </clipPath>
    <clipPath
       id="clipPath8713">
      <rect
         width="395.50385"
         height="138.17282"
         ry="18.904718"
         x="-413.25079"
         y="357.69519"
         id="rect8715"
         style="fill:#ff6600;fill-opacity:1;stroke:none" />
    </clipPath>
    <clipPath
       id="clipPath8717">
      <rect
         width="395.50385"
         height="138.17282"
         ry="18.904718"
         x="-413.25079"
         y="357.69519"
         id="rect8719"
         style="fill:#ff6600;fill-opacity:1;stroke:none" />
    </clipPath>
    <clipPath
       id="clipPath3828-0">
      <rect
         width="395.50385"
         height="138.17282"
         ry="18.904718"
         x="-413.25079"
         y="357.69519"
         id="rect3830-8"
         style="fill:#ff6600;fill-opacity:1;stroke:none" />
    </clipPath>
    <clipPath
       id="clipPath3824-6">
      <rect
         width="395.50385"
         height="138.17282"
         ry="18.904718"
         x="-413.25079"
         y="357.69519"
         id="rect3826-5"
         style="fill:#ff6600;fill-opacity:1;stroke:none" />
    </clipPath>
    <radialGradient
       cx="-223.22363"
       cy="291.47592"
       r="197.09946"
       fx="-223.22363"
       fy="291.47592"
       id="radialGradient5876"
       xlink:href="#linearGradient5761"
       gradientUnits="userSpaceOnUse"
       gradientTransform="matrix(0.03176436,0.53748937,-0.973804,0.05755026,82.409967,457.17646)" />
    <linearGradient
       id="linearGradient5761">
      <stop
         id="stop5763"
         style="stop-color:#ff7f2a;stop-opacity:1"
         offset="0" />
      <stop
         id="stop5765"
         style="stop-color:#ffcc00;stop-opacity:1"
         offset="1" />
    </linearGradient>
    <clipPath
       id="clipPath9436">
      <rect
         width="395.50385"
         height="138.17282"
         ry="18.904718"
         x="-413.25079"
         y="357.69519"
         id="rect9438"
         style="fill:#ff6600;fill-opacity:1;stroke:none" />
    </clipPath>
    <clipPath
       id="clipPath9529">
      <rect
         width="395.50385"
         height="138.17282"
         ry="18.904718"
         x="-413.25079"
         y="357.69519"
         id="rect9531"
         style="fill:#ff6600;fill-opacity:1;stroke:none" />
    </clipPath>
    <clipPath
       id="clipPath9533">
      <rect
         width="395.50385"
         height="138.17282"
         ry="18.904718"
         x="-413.25079"
         y="357.69519"
         id="rect9535"
         style="fill:#ff6600;fill-opacity:1;stroke:none" />
    </clipPath>
    <clipPath
       id="clipPath3828-7">
      <rect
         width="395.50385"
         height="138.17282"
         ry="18.904718"
         x="-413.25079"
         y="357.69519"
         id="rect3830-4"
         style="fill:#ff6600;fill-opacity:1;stroke:none" />
    </clipPath>
    <clipPath
       id="clipPath3824-3">
      <rect
         width="395.50385"
         height="138.17282"
         ry="18.904718"
         x="-413.25079"
         y="357.69519"
         id="rect3826-3"
         style="fill:#ff6600;fill-opacity:1;stroke:none" />
    </clipPath>
    <clipPath
       id="clipPath10065">
      <rect
         width="395.50385"
         height="138.17282"
         ry="18.904718"
         x="-413.25079"
         y="357.69519"
         id="rect10067"
         style="fill:#ff6600;fill-opacity:1;stroke:none" />
    </clipPath>
    <clipPath
       id="clipPath3828-08">
      <rect
         width="395.50385"
         height="138.17282"
         ry="18.904718"
         x="-413.25079"
         y="357.69519"
         id="rect3830-3"
         style="fill:#ff6600;fill-opacity:1;stroke:none" />
    </clipPath>
    <clipPath
       id="clipPath3824-1">
      <rect
         width="395.50385"
         height="138.17282"
         ry="18.904718"
         x="-413.25079"
         y="357.69519"
         id="rect3826-6"
         style="fill:#ff6600;fill-opacity:1;stroke:none" />
    </clipPath>
    <radialGradient
       cx="30.423372"
       cy="776.36084"
       r="202.82248"
       fx="30.423372"
       fy="776.36084"
       id="radialGradient5402"
       xlink:href="#linearGradient3498"
       gradientUnits="userSpaceOnUse"
       gradientTransform="matrix(0.7497571,-0.01483712,0.00431778,0.21820064,115.81344,605.79787)" />
    <linearGradient
       id="linearGradient3498">
      <stop
         id="stop3500"
         style="stop-color:#ffffff;stop-opacity:1"
         offset="0" />
      <stop
         id="stop3502"
         style="stop-color:#ffffff;stop-opacity:0"
         offset="1" />
    </linearGradient>
    <radialGradient
       cx="30.423372"
       cy="776.36084"
       r="202.82248"
       fx="30.423372"
       fy="776.36084"
       id="radialGradient5404"
       xlink:href="#linearGradient3498"
       gradientUnits="userSpaceOnUse"
       gradientTransform="matrix(0.7497571,-0.01483712,0.00431778,0.21820064,115.81344,605.79787)" />
    <linearGradient
       x1="262.40158"
       y1="588.40576"
       x2="262.40158"
       y2="620.45441"
       id="linearGradient5406"
       xlink:href="#linearGradient3142"
       gradientUnits="userSpaceOnUse"
       gradientTransform="matrix(0.98674174,0,0,1.0365561,-570.74955,-70.130314)" />
    <linearGradient
       id="linearGradient3142">
      <stop
         id="stop3144"
         style="stop-color:#000000;stop-opacity:1"
         offset="0" />
      <stop
         id="stop3146"
         style="stop-color:#000000;stop-opacity:0"
         offset="1" />
    </linearGradient>
    <linearGradient
       x1="262.40158"
       y1="588.40576"
       x2="262.40158"
       y2="619.23151"
       id="linearGradient5408"
       xlink:href="#linearGradient3142"
       gradientUnits="userSpaceOnUse"
       gradientTransform="matrix(0.98674174,0,0,1.0365561,82.924309,-1315.4989)" />
    <radialGradient
       cx="21.305288"
       cy="365.37674"
       r="202.82248"
       fx="21.305288"
       fy="365.37674"
       id="radialGradient5410"
       xlink:href="#linearGradient3142"
       gradientUnits="userSpaceOnUse"
       gradientTransform="matrix(-0.14374152,-0.00156142,0.00624972,-0.57539678,-126.61891,840.93303)" />
    <radialGradient
       cx="21.305288"
       cy="365.37674"
       r="202.82248"
       fx="21.305288"
       fy="365.37674"
       id="radialGradient5412"
       xlink:href="#linearGradient3142"
       gradientUnits="userSpaceOnUse"
       gradientTransform="matrix(-0.14374152,-0.00156142,0.00624972,-0.57539678,527.05492,-404.43553)" />
    <linearGradient
       x1="262.40158"
       y1="588.40576"
       x2="262.40158"
       y2="620.45441"
       id="linearGradient5414"
       xlink:href="#linearGradient3142"
       gradientUnits="userSpaceOnUse"
       gradientTransform="matrix(0.98674174,0,0,1.0365561,-570.74955,-70.130314)" />
    <linearGradient
       x1="262.40158"
       y1="588.40576"
       x2="262.40158"
       y2="619.23151"
       id="linearGradient5416"
       xlink:href="#linearGradient3142"
       gradientUnits="userSpaceOnUse"
       gradientTransform="matrix(0.98674174,0,0,1.0365561,82.924309,-1315.4989)" />
    <radialGradient
       cx="21.305288"
       cy="365.37674"
       r="202.82248"
       fx="21.305288"
       fy="365.37674"
       id="radialGradient5418"
       xlink:href="#linearGradient3142"
       gradientUnits="userSpaceOnUse"
       gradientTransform="matrix(-0.14374152,-0.00156142,0.00624972,-0.57539678,-126.61891,840.93303)" />
    <radialGradient
       cx="21.305288"
       cy="365.37674"
       r="202.82248"
       fx="21.305288"
       fy="365.37674"
       id="radialGradient5420"
       xlink:href="#linearGradient3142"
       gradientUnits="userSpaceOnUse"
       gradientTransform="matrix(-0.14374152,-0.00156142,0.00624972,-0.57539678,527.05492,-404.43553)" />
    <linearGradient
       x1="263.66922"
       y1="306.98956"
       x2="263.66922"
       y2="412.20374"
       id="linearGradient5422"
       xlink:href="#linearGradient3163"
       gradientUnits="userSpaceOnUse"
       gradientTransform="matrix(1.1389189,0,0,1,-72.089915,5.070562)" />
    <linearGradient
       id="linearGradient3163">
      <stop
         id="stop3165"
         style="stop-color:#f9f9f9;stop-opacity:1"
         offset="0" />
      <stop
         id="stop3167"
         style="stop-color:#f9f9f9;stop-opacity:0"
         offset="1" />
    </linearGradient>
    <linearGradient
       x1="263.66922"
       y1="235.89346"
       x2="261.44318"
       y2="394.42972"
       id="linearGradient5424"
       xlink:href="#linearGradient3163"
       gradientUnits="userSpaceOnUse"
       gradientTransform="matrix(-1.1389189,0,0,-0.28527932,579.93382,531.58446)" />
    <linearGradient
       x1="263.66922"
       y1="306.98956"
       x2="263.66922"
       y2="412.20374"
       id="linearGradient5426"
       xlink:href="#linearGradient3163"
       gradientUnits="userSpaceOnUse"
       gradientTransform="matrix(1.1389189,0,0,1,-72.089915,5.070562)" />
    <linearGradient
       x1="263.66922"
       y1="235.89346"
       x2="261.44318"
       y2="394.42972"
       id="linearGradient5428"
       xlink:href="#linearGradient3163"
       gradientUnits="userSpaceOnUse"
       gradientTransform="matrix(-1.1389189,0,0,-0.28527932,579.93382,531.58446)" />
    <clipPath
       id="clipPath10471">
      <rect
         width="395.50385"
         height="138.17282"
         ry="18.904718"
         x="-413.25079"
         y="357.69519"
         id="rect10473"
         style="fill:#ff6600;fill-opacity:1;stroke:none" />
    </clipPath>
    <clipPath
       id="clipPath10475">
      <rect
         width="395.50385"
         height="138.17282"
         ry="18.904718"
         x="-413.25079"
         y="357.69519"
         id="rect10477"
         style="fill:#ff6600;fill-opacity:1;stroke:none" />
    </clipPath>
    <radialGradient
       cx="30.423372"
       cy="776.36084"
       r="202.82248"
       fx="30.423372"
       fy="776.36084"
       id="radialGradient5699"
       xlink:href="#linearGradient3498"
       gradientUnits="userSpaceOnUse"
       gradientTransform="matrix(0.7497571,-0.01483712,0.00431778,0.21820064,115.81344,605.79787)" />
    <radialGradient
       cx="30.423372"
       cy="776.36084"
       r="202.82248"
       fx="30.423372"
       fy="776.36084"
       id="radialGradient5701"
       xlink:href="#linearGradient3498"
       gradientUnits="userSpaceOnUse"
       gradientTransform="matrix(0.7497571,-0.01483712,0.00431778,0.21820064,115.81344,605.79787)" />
    <linearGradient
       x1="262.40158"
       y1="588.40576"
       x2="262.40158"
       y2="620.45441"
       id="linearGradient5703"
       xlink:href="#linearGradient3142"
       gradientUnits="userSpaceOnUse"
       gradientTransform="matrix(0.98674174,0,0,1.0365561,-570.74955,-70.130314)" />
    <linearGradient
       x1="262.40158"
       y1="588.40576"
       x2="262.40158"
       y2="619.23151"
       id="linearGradient5705"
       xlink:href="#linearGradient3142"
       gradientUnits="userSpaceOnUse"
       gradientTransform="matrix(0.98674174,0,0,1.0365561,82.924309,-1315.4989)" />
    <radialGradient
       cx="21.305288"
       cy="365.37674"
       r="202.82248"
       fx="21.305288"
       fy="365.37674"
       id="radialGradient5707"
       xlink:href="#linearGradient3142"
       gradientUnits="userSpaceOnUse"
       gradientTransform="matrix(-0.14374152,-0.00156142,0.00624972,-0.57539678,-126.61891,840.93303)" />
    <radialGradient
       cx="21.305288"
       cy="365.37674"
       r="202.82248"
       fx="21.305288"
       fy="365.37674"
       id="radialGradient5709"
       xlink:href="#linearGradient3142"
       gradientUnits="userSpaceOnUse"
       gradientTransform="matrix(-0.14374152,-0.00156142,0.00624972,-0.57539678,527.05492,-404.43553)" />
    <linearGradient
       x1="262.40158"
       y1="588.40576"
       x2="262.40158"
       y2="620.45441"
       id="linearGradient5711"
       xlink:href="#linearGradient3142"
       gradientUnits="userSpaceOnUse"
       gradientTransform="matrix(0.98674174,0,0,1.0365561,-570.74955,-70.130314)" />
    <linearGradient
       x1="262.40158"
       y1="588.40576"
       x2="262.40158"
       y2="619.23151"
       id="linearGradient5713"
       xlink:href="#linearGradient3142"
       gradientUnits="userSpaceOnUse"
       gradientTransform="matrix(0.98674174,0,0,1.0365561,82.924309,-1315.4989)" />
    <radialGradient
       cx="21.305288"
       cy="365.37674"
       r="202.82248"
       fx="21.305288"
       fy="365.37674"
       id="radialGradient5715"
       xlink:href="#linearGradient3142"
       gradientUnits="userSpaceOnUse"
       gradientTransform="matrix(-0.14374152,-0.00156142,0.00624972,-0.57539678,-126.61891,840.93303)" />
    <radialGradient
       cx="21.305288"
       cy="365.37674"
       r="202.82248"
       fx="21.305288"
       fy="365.37674"
       id="radialGradient5717"
       xlink:href="#linearGradient3142"
       gradientUnits="userSpaceOnUse"
       gradientTransform="matrix(-0.14374152,-0.00156142,0.00624972,-0.57539678,527.05492,-404.43553)" />
    <linearGradient
       x1="263.66922"
       y1="306.98956"
       x2="263.66922"
       y2="412.20374"
       id="linearGradient5719"
       xlink:href="#linearGradient3163"
       gradientUnits="userSpaceOnUse"
       gradientTransform="matrix(1.1389189,0,0,1,-72.089915,5.070562)" />
    <linearGradient
       x1="263.66922"
       y1="235.89346"
       x2="261.44318"
       y2="394.42972"
       id="linearGradient5721"
       xlink:href="#linearGradient3163"
       gradientUnits="userSpaceOnUse"
       gradientTransform="matrix(-1.1389189,0,0,-0.28527932,579.93382,531.58446)" />
    <linearGradient
       x1="263.66922"
       y1="306.98956"
       x2="263.66922"
       y2="412.20374"
       id="linearGradient5723"
       xlink:href="#linearGradient3163"
       gradientUnits="userSpaceOnUse"
       gradientTransform="matrix(1.1389189,0,0,1,-72.089915,5.070562)" />
    <linearGradient
       x1="263.66922"
       y1="235.89346"
       x2="261.44318"
       y2="394.42972"
       id="linearGradient5725"
       xlink:href="#linearGradient3163"
       gradientUnits="userSpaceOnUse"
       gradientTransform="matrix(-1.1389189,0,0,-0.28527932,579.93382,531.58446)" />
    <clipPath
       id="clipPath10577">
      <rect
         width="395.50385"
         height="138.17282"
         ry="18.904718"
         x="-413.25079"
         y="357.69519"
         id="rect10579"
         style="fill:#ff6600;fill-opacity:1;stroke:none" />
    </clipPath>
    <clipPath
       id="clipPath10581">
      <rect
         width="395.50385"
         height="138.17282"
         ry="18.904718"
         x="-413.25079"
         y="357.69519"
         id="rect10583"
         style="fill:#ff6600;fill-opacity:1;stroke:none" />
    </clipPath>
    <radialGradient
       cx="30.423372"
       cy="776.36084"
       r="202.82248"
       fx="30.423372"
       fy="776.36084"
       id="radialGradient7944"
       xlink:href="#linearGradient3498"
       gradientUnits="userSpaceOnUse"
       gradientTransform="matrix(0.7497571,-0.01483712,0.00431778,0.21820064,115.81344,605.79787)" />
    <radialGradient
       cx="30.423372"
       cy="776.36084"
       r="202.82248"
       fx="30.423372"
       fy="776.36084"
       id="radialGradient7946"
       xlink:href="#linearGradient3498"
       gradientUnits="userSpaceOnUse"
       gradientTransform="matrix(0.7497571,-0.01483712,0.00431778,0.21820064,115.81344,605.79787)" />
    <linearGradient
       x1="262.40158"
       y1="588.40576"
       x2="262.40158"
       y2="620.45441"
       id="linearGradient7948"
       xlink:href="#linearGradient3142"
       gradientUnits="userSpaceOnUse"
       gradientTransform="matrix(0.98674174,0,0,1.0365561,-570.74955,-70.130314)" />
    <linearGradient
       x1="262.40158"
       y1="588.40576"
       x2="262.40158"
       y2="619.23151"
       id="linearGradient7950"
       xlink:href="#linearGradient3142"
       gradientUnits="userSpaceOnUse"
       gradientTransform="matrix(0.98674174,0,0,1.0365561,82.924309,-1315.4989)" />
    <radialGradient
       cx="21.305288"
       cy="365.37674"
       r="202.82248"
       fx="21.305288"
       fy="365.37674"
       id="radialGradient7952"
       xlink:href="#linearGradient3142"
       gradientUnits="userSpaceOnUse"
       gradientTransform="matrix(-0.14374152,-0.00156142,0.00624972,-0.57539678,-126.61891,840.93303)" />
    <radialGradient
       cx="21.305288"
       cy="365.37674"
       r="202.82248"
       fx="21.305288"
       fy="365.37674"
       id="radialGradient7954"
       xlink:href="#linearGradient3142"
       gradientUnits="userSpaceOnUse"
       gradientTransform="matrix(-0.14374152,-0.00156142,0.00624972,-0.57539678,527.05492,-404.43553)" />
    <linearGradient
       x1="262.40158"
       y1="588.40576"
       x2="262.40158"
       y2="620.45441"
       id="linearGradient7956"
       xlink:href="#linearGradient3142"
       gradientUnits="userSpaceOnUse"
       gradientTransform="matrix(0.98674174,0,0,1.0365561,-570.74955,-70.130314)" />
    <linearGradient
       x1="262.40158"
       y1="588.40576"
       x2="262.40158"
       y2="619.23151"
       id="linearGradient7958"
       xlink:href="#linearGradient3142"
       gradientUnits="userSpaceOnUse"
       gradientTransform="matrix(0.98674174,0,0,1.0365561,82.924309,-1315.4989)" />
    <radialGradient
       cx="21.305288"
       cy="365.37674"
       r="202.82248"
       fx="21.305288"
       fy="365.37674"
       id="radialGradient7960"
       xlink:href="#linearGradient3142"
       gradientUnits="userSpaceOnUse"
       gradientTransform="matrix(-0.14374152,-0.00156142,0.00624972,-0.57539678,-126.61891,840.93303)" />
    <radialGradient
       cx="21.305288"
       cy="365.37674"
       r="202.82248"
       fx="21.305288"
       fy="365.37674"
       id="radialGradient7962"
       xlink:href="#linearGradient3142"
       gradientUnits="userSpaceOnUse"
       gradientTransform="matrix(-0.14374152,-0.00156142,0.00624972,-0.57539678,527.05492,-404.43553)" />
    <linearGradient
       x1="263.66922"
       y1="306.98956"
       x2="263.66922"
       y2="412.20374"
       id="linearGradient7964"
       xlink:href="#linearGradient3163"
       gradientUnits="userSpaceOnUse"
       gradientTransform="matrix(1.1389189,0,0,1,-72.089915,5.070562)" />
    <linearGradient
       x1="263.66922"
       y1="235.89346"
       x2="261.44318"
       y2="394.42972"
       id="linearGradient7966"
       xlink:href="#linearGradient3163"
       gradientUnits="userSpaceOnUse"
       gradientTransform="matrix(-1.1389189,0,0,-0.28527932,579.93382,531.58446)" />
    <linearGradient
       x1="263.66922"
       y1="306.98956"
       x2="263.66922"
       y2="412.20374"
       id="linearGradient7968"
       xlink:href="#linearGradient3163"
       gradientUnits="userSpaceOnUse"
       gradientTransform="matrix(1.1389189,0,0,1,-72.089915,5.070562)" />
    <linearGradient
       x1="263.66922"
       y1="235.89346"
       x2="261.44318"
       y2="394.42972"
       id="linearGradient7970"
       xlink:href="#linearGradient3163"
       gradientUnits="userSpaceOnUse"
       gradientTransform="matrix(-1.1389189,0,0,-0.28527932,579.93382,531.58446)" />
  </defs>
  <metadata
     id="metadata4">
    <rdf:RDF>
      <cc:Work
         rdf:about="">
        <dc:format>image/svg+xml</dc:format>
        <dc:type
           rdf:resource="http://purl.org/dc/dcmitype/StillImage" />
        <dc:title></dc:title>
      </cc:Work>
    </rdf:RDF>
  </metadata>
  <g
     transform="translate(-0.90848217,-0.20838192)"
     id="layer1">
    <g
       transform="matrix(1.6025575,0,0,1.6025575,827.80139,111.96622)"
       id="g5644">
      <g
         transform="translate(0.41152215,0.4776802)"
         id="g5346">
        <path
           d="m -328.69859,427.5155 68.49453,-68.5 7.5,0 7.5,0 -68.49453,68.5 -68.49454,68.5 -7.5,0 -7.5,0 68.49454,-68.5 z m 30,0 68.49453,-68.5 7.5,0 7.5,0 -68.49453,68.5 -68.49453,68.5 -7.5,0 -7.5,0 68.49453,-68.5 z m 30,0 68.49453,-68.5 7.5,0 7.5,0 -68.49453,68.5 -68.49453,68.5 -7.5,0 -7.5,0 68.49453,-68.5 z m 30,0 68.49453,-68.5 7.5,0 7.5,0 -68.49453,68.5 -68.49453,68.5 -7.5,0 -7.5,0 68.49453,-68.5 z m 30,0 68.49453,-68.5 7.5,0 7.5,0 -68.49453,68.5 -68.49453,68.5 -7.5,0 -7.5,0 68.49453,-68.5 z m 30,0 68.49453,-68.5 7.5,0 7.500001,0 -68.494531,68.5 -68.49453,68.5 -7.5,0 -7.5,0 68.49453,-68.5 z m 30,0 68.494531,-68.5 7.5,0 7.5,0 -68.494531,68.5 -68.49453,68.5 -7.5,0 -7.5,0 68.49453,-68.5 z m 30,0 68.494531,-68.5 7.5,0 7.5,0 -68.494531,68.5 -68.49453,68.5 -7.5,0 -7.5,0 68.49453,-68.5 z m 30.000001,0 c 37.67199,-37.675 69.05826,-68.5 69.74726,-68.5 0.87009,0 1.25274,1.90998 1.25274,6.253 l 0,6.253 -62.25298,62.247 -62.252971,62.247 -7.49429,0 -7.49429,0 68.494531,-68.5 z m 16.00344,13.99041 54.49656,-54.50959 0.29781,7.20787 0.29781,7.20786 -47.29386,47.30172 -47.293871,47.30173 -7.5005,0 -7.50051,0 54.496561,-54.50959 z m 15.00131,14.9987 39.49525,-39.5109 0.29778,7.20742 0.29777,7.20742 -32.292,32.30347 -32.29201,32.30348 -7.50102,0 -7.50103,0 39.49526,-39.51089 z m 15.0029,14.99708 24.49235,-24.5138 0.29768,7.20564 0.29768,7.20564 -17.28696,17.30817 -17.28697,17.30816 -7.50306,0 -7.50306,0 24.49234,-24.51381 z m 15.0121,14.98782 9.48025,-9.52599 0.29655,7.16198 c 0.2591,6.25723 0.016,7.46063 -1.92431,9.52599 -1.95482,2.08082 -3.12602,2.36401 -9.7768,2.36401 l -7.55594,0 9.48025,-9.52599 z m -384.019761,1.52016 0,-7.50032 60.80089,-60.79475 60.80088,-60.79476 7.20803,0.29783 7.20802,0.29783 -68.00891,67.99724 -68.00891,67.99725 0,-7.50032 z m 0,-30.00178 0,-7.50054 45.80186,-45.79374 45.80185,-45.79373 7.20783,0.29781 7.20784,0.29781 -53.00969,52.99646 -53.00969,52.99646 0,-7.50053 z m 0,-30.00337 0,-7.50112 30.80374,-30.79172 30.80375,-30.79172 7.20734,0.29777 7.20734,0.29777 -38.01108,37.99507 -38.01109,37.99506 0,-7.50111 z m 0,-30.00889 0,-7.50357 15.8091,-15.78594 15.8091,-15.78595 7.20522,0.29767 7.2052,0.29766 -23.01432,22.99185 -23.0143,22.99184 0,-7.50356 z m 0,-30.28497 c 0,-5.58811 0.37736,-7.90274 1.34921,-8.27567 0.74207,-0.28476 4.35572,-0.38314 8.03033,-0.21862 l 6.68111,0.29913 -8.03033,7.97654 -8.03032,7.97654 0,-7.75792 z"
           transform="translate(-87.485769,-243.62153)"
           clip-path="url(#clipPath3828-08)"
           id="path5268"
           style="fill:#ffcc00" />
        <path
           d="m -343.45134,427.51549 68.49453,-68.5 7.5,0 7.5,0 -68.49453,68.5 -68.49454,68.5 -7.5,0 -7.49999,0 68.49453,-68.5 z m 30,0 68.49453,-68.5 7.5,0 7.5,0 -68.49453,68.5 -68.49453,68.5 -7.50001,0 -7.49999,0 68.49453,-68.5 z m 30,0 68.49453,-68.5 7.5,0 7.5,0 -68.49453,68.5 -68.49453,68.5 -7.5,0 -7.5,0 68.49453,-68.5 z m 30,0 68.49453,-68.5 7.5,0 7.5,0 -68.49453,68.5 -68.49453,68.5 -7.5,0 -7.5,0 68.49453,-68.5 z m 30,0 68.49453,-68.5 7.5,0 7.5,0 -68.49453,68.5 -68.49453,68.5 -7.5,0 -7.5,0 68.49453,-68.5 z m 30,0 68.49453,-68.5 7.5,0 7.5,0 -68.49453,68.5 -68.49453,68.5 -7.5,0 -7.5,0 68.49453,-68.5 z m 30,0 68.494531,-68.5 7.5,0 7.5,0 -68.494531,68.5 -68.49453,68.5 -7.5,0 -7.5,0 68.49453,-68.5 z m 30,0 68.494531,-68.5 7.5,0 7.5,0 -68.494531,68.5 -68.49453,68.5 -7.5,0 -7.5,0 68.49453,-68.5 z m 30,0 68.494531,-68.5 7.5,0 7.5,0 -68.49453,68.5 -68.494531,68.5 -7.5,0 -7.5,0 68.49453,-68.5 z m 23.503021,6.49083 61.99698,-62.00917 0.29782,7.20796 0.29782,7.20797 -54.79441,54.8012 -54.794411,54.80121 -7.50039,0 -7.50038,0 61.996971,-62.00917 z m 15.00097,14.99903 46.99601,-47.01014 0.2978,7.2077 0.29779,7.2077 -39.79311,39.80244 -39.7931,39.80244 -7.500701,0 -7.5007,0 46.996011,-47.01014 z m 15.00187,14.99813 31.99414,-32.01201 0.29774,7.20688 0.29775,7.20689 -24.79025,24.80512 -24.79024,24.80513 -7.50164,0 -7.50164,0 31.99414,-32.01201 z m 15.00517,14.99482 16.98897,-17.0172 0.29753,7.20159 0.29753,7.2016 -9.77877,9.8156 -9.77877,9.8156 -7.50773,0 -7.50773,0 16.98897,-17.01719 z m 14.98897,15.01719 c 0.99549,-1.1 1.96523,-2 2.15499,-2 0.18975,0 0.34501,0.9 0.34501,2 0,1.38128 -0.66667,2 -2.15499,2 -2.09164,0 -2.10178,-0.0588 -0.34501,-2 z m -391.500011,-21.0066 0,-7.50041 53.3013,-53.29432 53.30131,-53.29431 7.20795,0.29782 7.20794,0.29782 -60.50925,60.4969 -60.50925,60.4969 0,-7.5004 z m 0,-30.00239 0,-7.50075 38.30262,-38.29292 38.30261,-38.29293 7.20766,0.2978 7.20765,0.29779 -45.51027,45.49588 -45.51027,45.49588 0,-7.50075 z m 0,-30.00514 0,-7.50183 23.30558,-23.28975 23.30559,-23.28976 7.20671,0.29774 7.20672,0.29773 -30.5123,30.49385 -30.5123,30.49385 0,-7.50183 z m 0,-30.02005 0,-7.50998 8.3186,-8.27539 8.31861,-8.27539 7.19966,0.29747 7.19967,0.29747 -15.51828,15.4879 -15.51826,15.4879 0,-7.50998 z"
           transform="translate(-87.362135,-243.62153)"
           clip-path="url(#clipPath3824-1)"
           id="path5270"
           style="fill:#ffdd55;fill-opacity:1" />
      </g>
      <g
         transform="translate(-696.39903,-638.71407)"
         id="g5272">
        <g
           transform="matrix(0.95984648,0,0,0.90010573,169.90774,-232.71612)"
           id="g5274"
           style="opacity:0.66000001">
          <g
             transform="matrix(0.96685437,0,0,0.92197935,96.41794,457.87028)"
             id="g5276">
            <rect
               width="405.64496"
               height="149.35332"
               ry="12.123334"
               x="-59.579105"
               y="702.08777"
               id="rect5278"
               style="opacity:0.33000004;fill:url(#radialGradient5699);fill-opacity:1;stroke:none" />
            <rect
               width="405.64496"
               height="149.35332"
               ry="12.123334"
               x="-59.579105"
               y="702.08777"
               id="rect5280"
               style="opacity:0.33000004;fill:url(#radialGradient5701);fill-opacity:1;stroke:none" />
          </g>
          <g
             transform="translate(532.40901,559.02947)"
             id="g5282">
            <g
               transform="matrix(1.025336,0,0,0.98362361,36.802617,1.3238442)"
               id="g5284">
              <rect
                 width="400.26682"
                 height="154.8131"
                 ry="12.566516"
                 x="-526.97034"
                 y="545.27777"
                 id="rect5286"
                 style="opacity:0.55;fill:url(#linearGradient5703);fill-opacity:1;stroke:none" />
              <rect
                 width="400.26682"
                 height="154.8131"
                 ry="12.566516"
                 x="126.70351"
                 y="-700.09082"
                 transform="scale(-1,-1)"
                 id="rect5288"
                 style="opacity:0.55;fill:url(#linearGradient5705);fill-opacity:1;stroke:none" />
              <rect
                 width="400.26682"
                 height="154.8131"
                 ry="12.566516"
                 x="-526.97034"
                 y="545.27777"
                 id="rect5290"
                 style="opacity:0.55;fill:url(#radialGradient5707);fill-opacity:1;stroke:none" />
              <rect
                 width="400.26682"
                 height="154.8131"
                 ry="12.566516"
                 x="126.70351"
                 y="-700.09082"
                 transform="scale(-1,-1)"
                 id="rect5292"
                 style="opacity:0.55;fill:url(#radialGradient5709);fill-opacity:1;stroke:none" />
            </g>
            <g
               transform="matrix(1.025336,0,0,0.98362361,36.802617,1.3238442)"
               id="g5294">
              <rect
                 width="400.26682"
                 height="154.8131"
                 ry="12.566516"
                 x="-526.97034"
                 y="545.27777"
                 id="rect5296"
                 style="opacity:0.55;fill:url(#linearGradient5711);fill-opacity:1;stroke:none" />
              <rect
                 width="400.26682"
                 height="154.8131"
                 ry="12.566516"
                 x="126.70351"
                 y="-700.09082"
                 transform="scale(-1,-1)"
                 id="rect5298"
                 style="opacity:0.55;fill:url(#linearGradient5713);fill-opacity:1;stroke:none" />
              <rect
                 width="400.26682"
                 height="154.8131"
                 ry="12.566516"
                 x="-526.97034"
                 y="545.27777"
                 id="rect5300"
                 style="opacity:0.55;fill:url(#radialGradient5715);fill-opacity:1;stroke:none" />
              <rect
                 width="400.26682"
                 height="154.8131"
                 ry="12.566516"
                 x="126.70351"
                 y="-700.09082"
                 transform="scale(-1,-1)"
                 id="rect5302"
                 style="opacity:0.55;fill:url(#radialGradient5717);fill-opacity:1;stroke:none" />
            </g>
          </g>
          <g
             transform="translate(-19.456709,793.81513)"
             id="g5304">
            <path
               d="m 395.82779,320.50806 c -102.70357,2.98901 -205.95937,-2.94766 -308.575836,3.15625 -16.190643,4.00145 -19.320836,24.05014 -10.001131,34.875 9.793746,11.43814 28.045977,9.27286 42.269407,12.30669 100.01778,13.4982 201.98787,11.91246 302.36033,3.03706 16.73402,-8.63312 17.41036,-30.58485 7.15384,-43.59375 -7.76556,-8.63404 -21.44154,-10.13861 -33.20661,-9.78125 z"
               id="path5306"
               style="fill:url(#linearGradient5719);fill-opacity:1;stroke:none" />
            <path
               d="m 112.01612,441.59667 c 102.70357,-0.85271 205.95937,0.8409 308.57584,-0.90042 16.19064,-1.14153 19.32083,-6.861 10.00113,-9.94911 -9.79375,-3.26307 -28.04598,-2.64536 -42.26941,-3.51085 -100.01778,-3.85075 -201.98787,-3.39838 -302.36033,-0.86641 -16.73402,2.46285 -17.41036,8.72523 -7.15384,12.4364 7.76556,2.46311 21.44154,2.89233 33.20661,2.79039 z"
               id="path5308"
               style="fill:url(#linearGradient5721);fill-opacity:1;stroke:none" />
          </g>
        </g>
        <g
           transform="matrix(0.95984648,0,0,0.90010573,150.87591,481.89348)"
           id="g5310"
           style="opacity:0.66000001">
          <path
             d="m 395.82779,320.50806 c -102.70357,2.98901 -205.95937,-2.94766 -308.575836,3.15625 -16.190643,4.00145 -19.320836,24.05014 -10.001131,34.875 9.793746,11.43814 28.045977,9.27286 42.269407,12.30669 100.01778,13.4982 201.98787,11.91246 302.36033,3.03706 16.73402,-8.63312 17.41036,-30.58485 7.15384,-43.59375 -7.76556,-8.63404 -21.44154,-10.13861 -33.20661,-9.78125 z"
             id="path5312"
             style="fill:url(#linearGradient5723);fill-opacity:1;stroke:none" />
          <path
             d="m 112.01612,441.59667 c 102.70357,-0.85271 205.95937,0.8409 308.57584,-0.90042 16.19064,-1.14153 19.32083,-6.861 10.00113,-9.94911 -9.79375,-3.26307 -28.04598,-2.64536 -42.26941,-3.51085 -100.01778,-3.85075 -201.98787,-3.39838 -302.36033,-0.86641 -16.73402,2.46285 -17.41036,8.72523 -7.15384,12.4364 7.76556,2.46311 21.44154,2.89233 33.20661,2.79039 z"
             id="path5314"
             style="fill:url(#linearGradient5725);fill-opacity:1;stroke:none" />
        </g>
      </g>
    </g>
    <g
       transform="matrix(1.6025575,0,0,1.6025575,910.3492,-1023.6485)"
       id="g5914">
      <g
         transform="translate(-1.2109022,0.9995652)"
         id="g5910">
        <path
           d="m -328.69859,427.5155 68.49453,-68.5 7.5,0 7.5,0 -68.49453,68.5 -68.49454,68.5 -7.5,0 -7.5,0 68.49454,-68.5 z m 30,0 68.49453,-68.5 7.5,0 7.5,0 -68.49453,68.5 -68.49453,68.5 -7.5,0 -7.5,0 68.49453,-68.5 z m 30,0 68.49453,-68.5 7.5,0 7.5,0 -68.49453,68.5 -68.49453,68.5 -7.5,0 -7.5,0 68.49453,-68.5 z m 30,0 68.49453,-68.5 7.5,0 7.5,0 -68.49453,68.5 -68.49453,68.5 -7.5,0 -7.5,0 68.49453,-68.5 z m 30,0 68.49453,-68.5 7.5,0 7.5,0 -68.49453,68.5 -68.49453,68.5 -7.5,0 -7.5,0 68.49453,-68.5 z m 30,0 68.49453,-68.5 7.5,0 7.500001,0 -68.494531,68.5 -68.49453,68.5 -7.5,0 -7.5,0 68.49453,-68.5 z m 30,0 68.494531,-68.5 7.5,0 7.5,0 -68.494531,68.5 -68.49453,68.5 -7.5,0 -7.5,0 68.49453,-68.5 z m 30,0 68.494531,-68.5 7.5,0 7.5,0 -68.494531,68.5 -68.49453,68.5 -7.5,0 -7.5,0 68.49453,-68.5 z m 30.000001,0 c 37.67199,-37.675 69.05826,-68.5 69.74726,-68.5 0.87009,0 1.25274,1.90998 1.25274,6.253 l 0,6.253 -62.25298,62.247 -62.252971,62.247 -7.49429,0 -7.49429,0 68.494531,-68.5 z m 16.00344,13.99041 54.49656,-54.50959 0.29781,7.20787 0.29781,7.20786 -47.29386,47.30172 -47.293871,47.30173 -7.5005,0 -7.50051,0 54.496561,-54.50959 z m 15.00131,14.9987 39.49525,-39.5109 0.29778,7.20742 0.29777,7.20742 -32.292,32.30347 -32.29201,32.30348 -7.50102,0 -7.50103,0 39.49526,-39.51089 z m 15.0029,14.99708 24.49235,-24.5138 0.29768,7.20564 0.29768,7.20564 -17.28696,17.30817 -17.28697,17.30816 -7.50306,0 -7.50306,0 24.49234,-24.51381 z m 15.0121,14.98782 9.48025,-9.52599 0.29655,7.16198 c 0.2591,6.25723 0.016,7.46063 -1.92431,9.52599 -1.95482,2.08082 -3.12602,2.36401 -9.7768,2.36401 l -7.55594,0 9.48025,-9.52599 z m -384.019761,1.52016 0,-7.50032 60.80089,-60.79475 60.80088,-60.79476 7.20803,0.29783 7.20802,0.29783 -68.00891,67.99724 -68.00891,67.99725 0,-7.50032 z m 0,-30.00178 0,-7.50054 45.80186,-45.79374 45.80185,-45.79373 7.20783,0.29781 7.20784,0.29781 -53.00969,52.99646 -53.00969,52.99646 0,-7.50053 z m 0,-30.00337 0,-7.50112 30.80374,-30.79172 30.80375,-30.79172 7.20734,0.29777 7.20734,0.29777 -38.01108,37.99507 -38.01109,37.99506 0,-7.50111 z m 0,-30.00889 0,-7.50357 15.8091,-15.78594 15.8091,-15.78595 7.20522,0.29767 7.2052,0.29766 -23.01432,22.99185 -23.0143,22.99184 0,-7.50356 z m 0,-30.28497 c 0,-5.58811 0.37736,-7.90274 1.34921,-8.27567 0.74207,-0.28476 4.35572,-0.38314 8.03033,-0.21862 l 6.68111,0.29913 -8.03033,7.97654 -8.03032,7.97654 0,-7.75792 z"
           transform="translate(-137.47287,639.23196)"
           clip-path="url(#clipPath3828-08)"
           id="path5906"
           style="fill:#4d4d4d" />
        <path
           d="m -343.45134,427.51549 68.49453,-68.5 7.5,0 7.5,0 -68.49453,68.5 -68.49454,68.5 -7.5,0 -7.49999,0 68.49453,-68.5 z m 30,0 68.49453,-68.5 7.5,0 7.5,0 -68.49453,68.5 -68.49453,68.5 -7.50001,0 -7.49999,0 68.49453,-68.5 z m 30,0 68.49453,-68.5 7.5,0 7.5,0 -68.49453,68.5 -68.49453,68.5 -7.5,0 -7.5,0 68.49453,-68.5 z m 30,0 68.49453,-68.5 7.5,0 7.5,0 -68.49453,68.5 -68.49453,68.5 -7.5,0 -7.5,0 68.49453,-68.5 z m 30,0 68.49453,-68.5 7.5,0 7.5,0 -68.49453,68.5 -68.49453,68.5 -7.5,0 -7.5,0 68.49453,-68.5 z m 30,0 68.49453,-68.5 7.5,0 7.5,0 -68.49453,68.5 -68.49453,68.5 -7.5,0 -7.5,0 68.49453,-68.5 z m 30,0 68.494531,-68.5 7.5,0 7.5,0 -68.494531,68.5 -68.49453,68.5 -7.5,0 -7.5,0 68.49453,-68.5 z m 30,0 68.494531,-68.5 7.5,0 7.5,0 -68.494531,68.5 -68.49453,68.5 -7.5,0 -7.5,0 68.49453,-68.5 z m 30,0 68.494531,-68.5 7.5,0 7.5,0 -68.49453,68.5 -68.494531,68.5 -7.5,0 -7.5,0 68.49453,-68.5 z m 23.503021,6.49083 61.99698,-62.00917 0.29782,7.20796 0.29782,7.20797 -54.79441,54.8012 -54.794411,54.80121 -7.50039,0 -7.50038,0 61.996971,-62.00917 z m 15.00097,14.99903 46.99601,-47.01014 0.2978,7.2077 0.29779,7.2077 -39.79311,39.80244 -39.7931,39.80244 -7.500701,0 -7.5007,0 46.996011,-47.01014 z m 15.00187,14.99813 31.99414,-32.01201 0.29774,7.20688 0.29775,7.20689 -24.79025,24.80512 -24.79024,24.80513 -7.50164,0 -7.50164,0 31.99414,-32.01201 z m 15.00517,14.99482 16.98897,-17.0172 0.29753,7.20159 0.29753,7.2016 -9.77877,9.8156 -9.77877,9.8156 -7.50773,0 -7.50773,0 16.98897,-17.01719 z m 14.98897,15.01719 c 0.99549,-1.1 1.96523,-2 2.15499,-2 0.18975,0 0.34501,0.9 0.34501,2 0,1.38128 -0.66667,2 -2.15499,2 -2.09164,0 -2.10178,-0.0588 -0.34501,-2 z m -391.500011,-21.0066 0,-7.50041 53.3013,-53.29432 53.30131,-53.29431 7.20795,0.29782 7.20794,0.29782 -60.50925,60.4969 -60.50925,60.4969 0,-7.5004 z m 0,-30.00239 0,-7.50075 38.30262,-38.29292 38.30261,-38.29293 7.20766,0.2978 7.20765,0.29779 -45.51027,45.49588 -45.51027,45.49588 0,-7.50075 z m 0,-30.00514 0,-7.50183 23.30558,-23.28975 23.30559,-23.28976 7.20671,0.29774 7.20672,0.29773 -30.5123,30.49385 -30.5123,30.49385 0,-7.50183 z m 0,-30.02005 0,-7.50998 8.3186,-8.27539 8.31861,-8.27539 7.19966,0.29747 7.19967,0.29747 -15.51828,15.4879 -15.51826,15.4879 0,-7.50998 z"
           transform="translate(-137.34923,639.23195)"
           clip-path="url(#clipPath3824-1)"
           id="path5908"
           style="fill:#000000" />
      </g>
      <g
         transform="translate(-748.00855,244.66131)"
         id="g5358">
        <g
           transform="matrix(0.95984648,0,0,0.90010573,169.90774,-232.71612)"
           id="g5360"
           style="opacity:0.66000001">
          <g
             transform="matrix(0.96685437,0,0,0.92197935,96.41794,457.87028)"
             id="g5362">
            <rect
               width="405.64496"
               height="149.35332"
               ry="12.123334"
               x="-59.579105"
               y="702.08777"
               id="rect5364"
               style="opacity:0.33000004;fill:url(#radialGradient5402);fill-opacity:1;stroke:none" />
            <rect
               width="405.64496"
               height="149.35332"
               ry="12.123334"
               x="-59.579105"
               y="702.08777"
               id="rect5366"
               style="opacity:0.33000004;fill:url(#radialGradient5404);fill-opacity:1;stroke:none" />
          </g>
          <g
             transform="translate(532.40901,559.02947)"
             id="g5368">
            <g
               transform="matrix(1.025336,0,0,0.98362361,36.802617,1.3238442)"
               id="g5370">
              <rect
                 width="400.26682"
                 height="154.8131"
                 ry="12.566516"
                 x="-526.97034"
                 y="545.27777"
                 id="rect5372"
                 style="opacity:0.55;fill:url(#linearGradient5406);fill-opacity:1;stroke:none" />
              <rect
                 width="400.26682"
                 height="154.8131"
                 ry="12.566516"
                 x="126.70351"
                 y="-700.09082"
                 transform="scale(-1,-1)"
                 id="rect5374"
                 style="opacity:0.55;fill:url(#linearGradient5408);fill-opacity:1;stroke:none" />
              <rect
                 width="400.26682"
                 height="154.8131"
                 ry="12.566516"
                 x="-526.97034"
                 y="545.27777"
                 id="rect5376"
                 style="opacity:0.55;fill:url(#radialGradient5410);fill-opacity:1;stroke:none" />
              <rect
                 width="400.26682"
                 height="154.8131"
                 ry="12.566516"
                 x="126.70351"
                 y="-700.09082"
                 transform="scale(-1,-1)"
                 id="rect5378"
                 style="opacity:0.55;fill:url(#radialGradient5412);fill-opacity:1;stroke:none" />
            </g>
            <g
               transform="matrix(1.025336,0,0,0.98362361,36.802617,1.3238442)"
               id="g5380">
              <rect
                 width="400.26682"
                 height="154.8131"
                 ry="12.566516"
                 x="-526.97034"
                 y="545.27777"
                 id="rect5382"
                 style="opacity:0.55;fill:url(#linearGradient5414);fill-opacity:1;stroke:none" />
              <rect
                 width="400.26682"
                 height="154.8131"
                 ry="12.566516"
                 x="126.70351"
                 y="-700.09082"
                 transform="scale(-1,-1)"
                 id="rect5384"
                 style="opacity:0.55;fill:url(#linearGradient5416);fill-opacity:1;stroke:none" />
              <rect
                 width="400.26682"
                 height="154.8131"
                 ry="12.566516"
                 x="-526.97034"
                 y="545.27777"
                 id="rect5386"
                 style="opacity:0.55;fill:url(#radialGradient5418);fill-opacity:1;stroke:none" />
              <rect
                 width="400.26682"
                 height="154.8131"
                 ry="12.566516"
                 x="126.70351"
                 y="-700.09082"
                 transform="scale(-1,-1)"
                 id="rect5388"
                 style="opacity:0.55;fill:url(#radialGradient5420);fill-opacity:1;stroke:none" />
            </g>
          </g>
          <g
             transform="translate(-19.456709,793.81513)"
             id="g5390">
            <path
               d="m 395.82779,320.50806 c -102.70357,2.98901 -205.95937,-2.94766 -308.575836,3.15625 -16.190643,4.00145 -19.320836,24.05014 -10.001131,34.875 9.793746,11.43814 28.045977,9.27286 42.269407,12.30669 100.01778,13.4982 201.98787,11.91246 302.36033,3.03706 16.73402,-8.63312 17.41036,-30.58485 7.15384,-43.59375 -7.76556,-8.63404 -21.44154,-10.13861 -33.20661,-9.78125 z"
               id="path5392"
               style="fill:url(#linearGradient5422);fill-opacity:1;stroke:none" />
            <path
               d="m 112.01612,441.59667 c 102.70357,-0.85271 205.95937,0.8409 308.57584,-0.90042 16.19064,-1.14153 19.32083,-6.861 10.00113,-9.94911 -9.79375,-3.26307 -28.04598,-2.64536 -42.26941,-3.51085 -100.01778,-3.85075 -201.98787,-3.39838 -302.36033,-0.86641 -16.73402,2.46285 -17.41036,8.72523 -7.15384,12.4364 7.76556,2.46311 21.44154,2.89233 33.20661,2.79039 z"
               id="path5394"
               style="fill:url(#linearGradient5424);fill-opacity:1;stroke:none" />
          </g>
        </g>
        <g
           transform="matrix(0.95984648,0,0,0.90010573,150.87591,481.89348)"
           id="g5396"
           style="opacity:0.66000001">
          <path
             d="m 395.82779,320.50806 c -102.70357,2.98901 -205.95937,-2.94766 -308.575836,3.15625 -16.190643,4.00145 -19.320836,24.05014 -10.001131,34.875 9.793746,11.43814 28.045977,9.27286 42.269407,12.30669 100.01778,13.4982 201.98787,11.91246 302.36033,3.03706 16.73402,-8.63312 17.41036,-30.58485 7.15384,-43.59375 -7.76556,-8.63404 -21.44154,-10.13861 -33.20661,-9.78125 z"
             id="path5398"
             style="fill:url(#linearGradient5426);fill-opacity:1;stroke:none" />
          <path
             d="m 112.01612,441.59667 c 102.70357,-0.85271 205.95937,0.8409 308.57584,-0.90042 16.19064,-1.14153 19.32083,-6.861 10.00113,-9.94911 -9.79375,-3.26307 -28.04598,-2.64536 -42.26941,-3.51085 -100.01778,-3.85075 -201.98787,-3.39838 -302.36033,-0.86641 -16.73402,2.46285 -17.41036,8.72523 -7.15384,12.4364 7.76556,2.46311 21.44154,2.89233 33.20661,2.79039 z"
             id="path5400"
             style="fill:url(#linearGradient5428);fill-opacity:1;stroke:none" />
        </g>
      </g>
    </g>
    <g
       transform="matrix(1.6025575,0,0,1.6025575,1024.1114,369.93773)"
       id="g7972">
      <g
         transform="translate(-0.34970717,-2.2704015)"
         id="g7896">
        <path
           d="m -328.69859,427.5155 68.49453,-68.5 7.5,0 7.5,0 -68.49453,68.5 -68.49454,68.5 -7.5,0 -7.5,0 68.49454,-68.5 z m 30,0 68.49453,-68.5 7.5,0 7.5,0 -68.49453,68.5 -68.49453,68.5 -7.5,0 -7.5,0 68.49453,-68.5 z m 30,0 68.49453,-68.5 7.5,0 7.5,0 -68.49453,68.5 -68.49453,68.5 -7.5,0 -7.5,0 68.49453,-68.5 z m 30,0 68.49453,-68.5 7.5,0 7.5,0 -68.49453,68.5 -68.49453,68.5 -7.5,0 -7.5,0 68.49453,-68.5 z m 30,0 68.49453,-68.5 7.5,0 7.5,0 -68.49453,68.5 -68.49453,68.5 -7.5,0 -7.5,0 68.49453,-68.5 z m 30,0 68.49453,-68.5 7.5,0 7.500001,0 -68.494531,68.5 -68.49453,68.5 -7.5,0 -7.5,0 68.49453,-68.5 z m 30,0 68.494531,-68.5 7.5,0 7.5,0 -68.494531,68.5 -68.49453,68.5 -7.5,0 -7.5,0 68.49453,-68.5 z m 30,0 68.494531,-68.5 7.5,0 7.5,0 -68.494531,68.5 -68.49453,68.5 -7.5,0 -7.5,0 68.49453,-68.5 z m 30.000001,0 c 37.67199,-37.675 69.05826,-68.5 69.74726,-68.5 0.87009,0 1.25274,1.90998 1.25274,6.253 l 0,6.253 -62.25298,62.247 -62.252971,62.247 -7.49429,0 -7.49429,0 68.494531,-68.5 z m 16.00344,13.99041 54.49656,-54.50959 0.29781,7.20787 0.29781,7.20786 -47.29386,47.30172 -47.293871,47.30173 -7.5005,0 -7.50051,0 54.496561,-54.50959 z m 15.00131,14.9987 39.49525,-39.5109 0.29778,7.20742 0.29777,7.20742 -32.292,32.30347 -32.29201,32.30348 -7.50102,0 -7.50103,0 39.49526,-39.51089 z m 15.0029,14.99708 24.49235,-24.5138 0.29768,7.20564 0.29768,7.20564 -17.28696,17.30817 -17.28697,17.30816 -7.50306,0 -7.50306,0 24.49234,-24.51381 z m 15.0121,14.98782 9.48025,-9.52599 0.29655,7.16198 c 0.2591,6.25723 0.016,7.46063 -1.92431,9.52599 -1.95482,2.08082 -3.12602,2.36401 -9.7768,2.36401 l -7.55594,0 9.48025,-9.52599 z m -384.019761,1.52016 0,-7.50032 60.80089,-60.79475 60.80088,-60.79476 7.20803,0.29783 7.20802,0.29783 -68.00891,67.99724 -68.00891,67.99725 0,-7.50032 z m 0,-30.00178 0,-7.50054 45.80186,-45.79374 45.80185,-45.79373 7.20783,0.29781 7.20784,0.29781 -53.00969,52.99646 -53.00969,52.99646 0,-7.50053 z m 0,-30.00337 0,-7.50112 30.80374,-30.79172 30.80375,-30.79172 7.20734,0.29777 7.20734,0.29777 -38.01108,37.99507 -38.01109,37.99506 0,-7.50111 z m 0,-30.00889 0,-7.50357 15.8091,-15.78594 15.8091,-15.78595 7.20522,0.29767 7.2052,0.29766 -23.01432,22.99185 -23.0143,22.99184 0,-7.50356 z m 0,-30.28497 c 0,-5.58811 0.37736,-7.90274 1.34921,-8.27567 0.74207,-0.28476 4.35572,-0.38314 8.03033,-0.21862 l 6.68111,0.29913 -8.03033,7.97654 -8.03032,7.97654 0,-7.75792 z"
           transform="translate(-206.35157,-573.89966)"
           clip-path="url(#clipPath3828-08)"
           id="path7765"
           style="fill:#cfa700;fill-opacity:1" />
        <path
           d="m -343.45134,427.51549 68.49453,-68.5 7.5,0 7.5,0 -68.49453,68.5 -68.49454,68.5 -7.5,0 -7.49999,0 68.49453,-68.5 z m 30,0 68.49453,-68.5 7.5,0 7.5,0 -68.49453,68.5 -68.49453,68.5 -7.50001,0 -7.49999,0 68.49453,-68.5 z m 30,0 68.49453,-68.5 7.5,0 7.5,0 -68.49453,68.5 -68.49453,68.5 -7.5,0 -7.5,0 68.49453,-68.5 z m 30,0 68.49453,-68.5 7.5,0 7.5,0 -68.49453,68.5 -68.49453,68.5 -7.5,0 -7.5,0 68.49453,-68.5 z m 30,0 68.49453,-68.5 7.5,0 7.5,0 -68.49453,68.5 -68.49453,68.5 -7.5,0 -7.5,0 68.49453,-68.5 z m 30,0 68.49453,-68.5 7.5,0 7.5,0 -68.49453,68.5 -68.49453,68.5 -7.5,0 -7.5,0 68.49453,-68.5 z m 30,0 68.494531,-68.5 7.5,0 7.5,0 -68.494531,68.5 -68.49453,68.5 -7.5,0 -7.5,0 68.49453,-68.5 z m 30,0 68.494531,-68.5 7.5,0 7.5,0 -68.494531,68.5 -68.49453,68.5 -7.5,0 -7.5,0 68.49453,-68.5 z m 30,0 68.494531,-68.5 7.5,0 7.5,0 -68.49453,68.5 -68.494531,68.5 -7.5,0 -7.5,0 68.49453,-68.5 z m 23.503021,6.49083 61.99698,-62.00917 0.29782,7.20796 0.29782,7.20797 -54.79441,54.8012 -54.794411,54.80121 -7.50039,0 -7.50038,0 61.996971,-62.00917 z m 15.00097,14.99903 46.99601,-47.01014 0.2978,7.2077 0.29779,7.2077 -39.79311,39.80244 -39.7931,39.80244 -7.500701,0 -7.5007,0 46.996011,-47.01014 z m 15.00187,14.99813 31.99414,-32.01201 0.29774,7.20688 0.29775,7.20689 -24.79025,24.80512 -24.79024,24.80513 -7.50164,0 -7.50164,0 31.99414,-32.01201 z m 15.00517,14.99482 16.98897,-17.0172 0.29753,7.20159 0.29753,7.2016 -9.77877,9.8156 -9.77877,9.8156 -7.50773,0 -7.50773,0 16.98897,-17.01719 z m 14.98897,15.01719 c 0.99549,-1.1 1.96523,-2 2.15499,-2 0.18975,0 0.34501,0.9 0.34501,2 0,1.38128 -0.66667,2 -2.15499,2 -2.09164,0 -2.10178,-0.0588 -0.34501,-2 z m -391.500011,-21.0066 0,-7.50041 53.3013,-53.29432 53.30131,-53.29431 7.20795,0.29782 7.20794,0.29782 -60.50925,60.4969 -60.50925,60.4969 0,-7.5004 z m 0,-30.00239 0,-7.50075 38.30262,-38.29292 38.30261,-38.29293 7.20766,0.2978 7.20765,0.29779 -45.51027,45.49588 -45.51027,45.49588 0,-7.50075 z m 0,-30.00514 0,-7.50183 23.30558,-23.28975 23.30559,-23.28976 7.20671,0.29774 7.20672,0.29773 -30.5123,30.49385 -30.5123,30.49385 0,-7.50183 z m 0,-30.02005 0,-7.50998 8.3186,-8.27539 8.31861,-8.27539 7.19966,0.29747 7.19967,0.29747 -15.51828,15.4879 -15.51826,15.4879 0,-7.50998 z"
           transform="translate(-206.22793,-573.89966)"
           clip-path="url(#clipPath3824-1)"
           id="path7767"
           style="fill:#edbe00;fill-opacity:1" />
      </g>
      <g
         transform="translate(-816.02605,-971.74028)"
         id="g7900">
        <g
           transform="matrix(0.95984648,0,0,0.90010573,169.90774,-232.71612)"
           id="g7902"
           style="opacity:0.66000001">
          <g
             transform="matrix(0.96685437,0,0,0.92197935,96.41794,457.87028)"
             id="g7904">
            <rect
               width="405.64496"
               height="149.35332"
               ry="12.123334"
               x="-59.579105"
               y="702.08777"
               id="rect7906"
               style="opacity:0.33000004;fill:url(#radialGradient7944);fill-opacity:1;stroke:none" />
            <rect
               width="405.64496"
               height="149.35332"
               ry="12.123334"
               x="-59.579105"
               y="702.08777"
               id="rect7908"
               style="opacity:0.33000004;fill:url(#radialGradient7946);fill-opacity:1;stroke:none" />
          </g>
          <g
             transform="translate(532.40901,559.02947)"
             id="g7910">
            <g
               transform="matrix(1.025336,0,0,0.98362361,36.802617,1.3238442)"
               id="g7912">
              <rect
                 width="400.26682"
                 height="154.8131"
                 ry="12.566516"
                 x="-526.97034"
                 y="545.27777"
                 id="rect7914"
                 style="opacity:0.55;fill:url(#linearGradient7948);fill-opacity:1;stroke:none" />
              <rect
                 width="400.26682"
                 height="154.8131"
                 ry="12.566516"
                 x="126.70351"
                 y="-700.09082"
                 transform="scale(-1,-1)"
                 id="rect7916"
                 style="opacity:0.55;fill:url(#linearGradient7950);fill-opacity:1;stroke:none" />
              <rect
                 width="400.26682"
                 height="154.8131"
                 ry="12.566516"
                 x="-526.97034"
                 y="545.27777"
                 id="rect7918"
                 style="opacity:0.55;fill:url(#radialGradient7952);fill-opacity:1;stroke:none" />
              <rect
                 width="400.26682"
                 height="154.8131"
                 ry="12.566516"
                 x="126.70351"
                 y="-700.09082"
                 transform="scale(-1,-1)"
                 id="rect7920"
                 style="opacity:0.55;fill:url(#radialGradient7954);fill-opacity:1;stroke:none" />
            </g>
            <g
               transform="matrix(1.025336,0,0,0.98362361,36.802617,1.3238442)"
               id="g7922">
              <rect
                 width="400.26682"
                 height="154.8131"
                 ry="12.566516"
                 x="-526.97034"
                 y="545.27777"
                 id="rect7924"
                 style="opacity:0.55;fill:url(#linearGradient7956);fill-opacity:1;stroke:none" />
              <rect
                 width="400.26682"
                 height="154.8131"
                 ry="12.566516"
                 x="126.70351"
                 y="-700.09082"
                 transform="scale(-1,-1)"
                 id="rect7926"
                 style="opacity:0.55;fill:url(#linearGradient7958);fill-opacity:1;stroke:none" />
              <rect
                 width="400.26682"
                 height="154.8131"
                 ry="12.566516"
                 x="-526.97034"
                 y="545.27777"
                 id="rect7928"
                 style="opacity:0.55;fill:url(#radialGradient7960);fill-opacity:1;stroke:none" />
              <rect
                 width="400.26682"
                 height="154.8131"
                 ry="12.566516"
                 x="126.70351"
                 y="-700.09082"
                 transform="scale(-1,-1)"
                 id="rect7930"
                 style="opacity:0.55;fill:url(#radialGradient7962);fill-opacity:1;stroke:none" />
            </g>
          </g>
          <g
             transform="translate(-19.456709,793.81513)"
             id="g7932">
            <path
               d="m 395.82779,320.50806 c -102.70357,2.98901 -205.95937,-2.94766 -308.575836,3.15625 -16.190643,4.00145 -19.320836,24.05014 -10.001131,34.875 9.793746,11.43814 28.045977,9.27286 42.269407,12.30669 100.01778,13.4982 201.98787,11.91246 302.36033,3.03706 16.73402,-8.63312 17.41036,-30.58485 7.15384,-43.59375 -7.76556,-8.63404 -21.44154,-10.13861 -33.20661,-9.78125 z"
               id="path7934"
               style="fill:url(#linearGradient7964);fill-opacity:1;stroke:none" />
            <path
               d="m 112.01612,441.59667 c 102.70357,-0.85271 205.95937,0.8409 308.57584,-0.90042 16.19064,-1.14153 19.32083,-6.861 10.00113,-9.94911 -9.79375,-3.26307 -28.04598,-2.64536 -42.26941,-3.51085 -100.01778,-3.85075 -201.98787,-3.39838 -302.36033,-0.86641 -16.73402,2.46285 -17.41036,8.72523 -7.15384,12.4364 7.76556,2.46311 21.44154,2.89233 33.20661,2.79039 z"
               id="path7936"
               style="fill:url(#linearGradient7966);fill-opacity:1;stroke:none" />
          </g>
        </g>
        <g
           transform="matrix(0.95984648,0,0,0.90010573,150.87591,481.89348)"
           id="g7938"
           style="opacity:0.66000001">
          <path
             d="m 395.82779,320.50806 c -102.70357,2.98901 -205.95937,-2.94766 -308.575836,3.15625 -16.190643,4.00145 -19.320836,24.05014 -10.001131,34.875 9.793746,11.43814 28.045977,9.27286 42.269407,12.30669 100.01778,13.4982 201.98787,11.91246 302.36033,3.03706 16.73402,-8.63312 17.41036,-30.58485 7.15384,-43.59375 -7.76556,-8.63404 -21.44154,-10.13861 -33.20661,-9.78125 z"
             id="path7940"
             style="fill:url(#linearGradient7968);fill-opacity:1;stroke:none" />
          <path
             d="m 112.01612,441.59667 c 102.70357,-0.85271 205.95937,0.8409 308.57584,-0.90042 16.19064,-1.14153 19.32083,-6.861 10.00113,-9.94911 -9.79375,-3.26307 -28.04598,-2.64536 -42.26941,-3.51085 -100.01778,-3.85075 -201.98787,-3.39838 -302.36033,-0.86641 -16.73402,2.46285 -17.41036,8.72523 -7.15384,12.4364 7.76556,2.46311 21.44154,2.89233 33.20661,2.79039 z"
             id="path7942"
             style="fill:url(#linearGradient7970);fill-opacity:1;stroke:none" />
        </g>
      </g>
    </g>
  </g>
</svg>
