<?xml version="1.0" encoding="UTF-8" standalone="no"?>
<!-- Created with Serif DrawPlus 12,0,3,25 (Nov 21, 16:13:25) (http://www.serif.com) -->
<svg version="1.1" xmlns="http://www.w3.org/2000/svg" xmlns:xlink="http://www.w3.org/1999/xlink" width="653.393" height="733.36">
	<defs>
		<linearGradient id="grad_dp_001" gradientUnits="userSpaceOnUse" x1="577.929" y1="383.14" x2="876.357" y2="-16.7453">
			<stop offset="0" stop-color="red"/>
			<stop offset="0.25" stop-color="red"/>
			<stop offset="0.61" stop-color="black"/>
			<stop offset="0.77" stop-color="red"/>
			<stop offset="1" stop-color="black"/>
		</linearGradient>
		<linearGradient id="grad_dp_002" gradientUnits="userSpaceOnUse" x1="444.877" y1="459.925" x2="762.784" y2="263.925">
			<stop offset="0" stop-color="#56330f"/>
			<stop offset="1" stop-color="#9b0000"/>
		</linearGradient>
		<linearGradient id="grad_dp_003" gradientUnits="userSpaceOnUse" x1="477.248" y1="165.701" x2="631.041" y2="52.0707">
			<stop offset="0" stop-color="red"/>
			<stop offset="0.25" stop-color="red"/>
			<stop offset="0.61" stop-color="black"/>
			<stop offset="0.77" stop-color="red"/>
			<stop offset="1" stop-color="black"/>
		</linearGradient>
		<linearGradient id="grad_dp_004" gradientUnits="userSpaceOnUse" x1="485.349" y1="174.633" x2="538.317" y2="65.3">
			<stop offset="0" stop-color="#56330f"/>
			<stop offset="1" stop-color="#9b0000"/>
		</linearGradient>
		<linearGradient id="grad_dp_005" gradientUnits="userSpaceOnUse" x1="403.301" y1="516.175" x2="519.595" y2="151.781">
			<stop offset="0" stop-color="maroon"/>
			<stop offset="1" stop-color="#ff7f00"/>
		</linearGradient>
		<linearGradient id="grad_dp_006" gradientUnits="userSpaceOnUse" x1="405.667" y1="330.687" x2="460.672" y2="328.265">
			<stop offset="0" stop-color="#f1b92c"/>
			<stop offset="0.1593" stop-color="white"/>
			<stop offset="0.4767" stop-color="white"/>
			<stop offset="0.8072" stop-color="white"/>
			<stop offset="1" stop-color="#f3ad21"/>
		</linearGradient>
		<linearGradient id="grad_dp_007" gradientUnits="userSpaceOnUse" x1="434.517" y1="359.701" x2="470.027" y2="358.085">
			<stop offset="0" stop-color="#f1b92c"/>
			<stop offset="0.1593" stop-color="white"/>
			<stop offset="0.4767" stop-color="white"/>
			<stop offset="0.8072" stop-color="white"/>
			<stop offset="1" stop-color="#f3ad21"/>
		</linearGradient>
	</defs>
	<g id="selection" transform="matrix(1,0,0,1,-161.433,58.3267)">
		<path id="dp_path001" fill="url(#grad_dp_001)" fill-rule="evenodd" stroke="black" stroke-width="2.66667" d="M 375.641,547.663 L 488.324,426.073 C 367.252,326.049 369.637,194.392 455.368,41.3813 C 537.94,-105.993 677.289,-62.5733 810.667,8.36667 C 650.893,31.22 666.136,93.44 699.308,174.084 C 768.365,341.972 773.625,446.875 690.667,511.033 C 593.637,586.073 479.004,591.223 378.035,592.169 Z "/>
		<g id="dp_group002">
			<path id="dp_path003" fill="#d70000" fill-rule="evenodd" d="M 531.981,567.819 C 532.356,567.164 532.723,566.637 533.084,566.24 C 533.444,565.841 533.759,565.607 534.033,565.532 C 534.369,565.44 534.591,565.588 534.697,565.979 C 534.765,566.231 534.753,567.603 534.661,570.093 C 534.568,572.587 534.359,574.245 534.031,575.069 C 533.7,575.893 533.325,576.503 532.904,576.9 C 532.483,577.297 532.067,577.552 531.657,577.664 C 531.437,577.724 531.253,577.723 531.107,577.661 C 530.96,577.6 530.864,577.489 530.821,577.332 C 530.773,577.153 530.791,576.969 530.875,576.781 C 530.96,576.595 531.087,576.479 531.253,576.433 C 531.327,576.413 531.388,576.411 531.439,576.424 C 531.488,576.44 531.563,576.468 531.664,576.509 C 531.851,576.616 531.984,576.685 532.059,576.715 C 532.135,576.745 532.22,576.747 532.315,576.721 C 532.484,576.675 532.625,576.536 532.743,576.301 C 532.859,576.065 532.987,575.591 533.124,574.875 C 533.263,574.16 533.376,573.177 533.464,571.928 C 533.552,570.68 533.603,569.571 533.615,568.603 C 533.627,567.633 533.615,567.081 533.576,566.943 C 533.552,566.895 533.525,566.848 533.497,566.804 C 533.468,566.761 533.417,566.751 533.343,566.771 C 533.225,566.803 533.068,566.959 532.867,567.239 C 532.665,567.519 532.497,567.787 532.361,568.037 Z M 534.729,561.545 C 534.787,561.755 534.765,561.98 534.667,562.216 C 534.568,562.453 534.391,562.605 534.139,562.675 C 533.96,562.723 533.792,562.713 533.637,562.643 C 533.483,562.569 533.375,562.425 533.315,562.203 C 533.257,561.992 533.277,561.768 533.376,561.532 C 533.476,561.295 533.657,561.14 533.92,561.068 C 534.141,561.008 534.32,561.027 534.453,561.125 C 534.589,561.227 534.681,561.365 534.729,561.545 Z "/>
			<path id="dp_path004" fill="#d70000" fill-rule="evenodd" d="M 541.719,565.885 C 542.02,566.989 541.932,568.184 541.461,569.471 C 540.988,570.756 540.207,571.548 539.115,571.847 C 538.525,572.007 537.995,571.952 537.521,571.68 C 537.047,571.408 536.709,570.911 536.512,570.185 C 536.203,569.051 536.285,567.833 536.759,566.535 C 537.236,565.237 538.008,564.441 539.079,564.149 C 539.699,563.981 540.248,564.059 540.725,564.387 C 541.204,564.713 541.535,565.213 541.719,565.885 Z M 537.823,570.125 C 537.943,570.565 538.111,570.895 538.327,571.112 C 538.543,571.328 538.804,571.395 539.107,571.312 C 539.767,571.132 540.212,570.431 540.447,569.207 C 540.679,567.983 540.66,566.867 540.385,565.861 C 540.271,565.441 540.101,565.125 539.881,564.909 C 539.659,564.695 539.364,564.636 538.997,564.736 C 538.295,564.997 537.864,565.749 537.711,566.997 C 537.555,568.243 537.593,569.285 537.823,570.125 Z "/>
			<path id="dp_path005" fill="#d70000" fill-rule="evenodd" d="M 547.945,569.359 C 548.857,569.673 549.369,570.036 549.481,570.445 C 549.647,571.055 549.479,571.673 548.976,572.3 C 548.475,572.929 547.712,573.381 546.688,573.661 C 545.713,573.927 544.832,573.959 544.044,573.757 C 543.257,573.555 542.784,573.164 542.627,572.588 C 542.579,572.409 542.576,572.207 542.623,571.979 C 542.667,571.753 542.781,571.508 542.964,571.244 C 543.145,570.98 543.404,570.725 543.739,570.483 C 544.073,570.24 544.524,569.956 545.089,569.632 C 544.728,569.46 544.463,569.292 544.295,569.121 C 544.125,568.953 544.017,568.785 543.972,568.617 C 543.927,568.449 543.948,568.296 544.037,568.161 C 544.127,568.023 544.407,567.727 544.88,567.271 C 544.603,567.165 544.351,567.007 544.125,566.797 C 543.897,566.588 543.727,566.272 543.612,565.849 C 543.403,565.081 543.472,564.365 543.824,563.704 C 544.176,563.041 544.715,562.612 545.44,562.415 C 545.797,562.317 546.091,562.293 546.313,562.348 C 546.536,562.4 546.771,562.496 547.011,562.635 L 548.701,562.075 L 548.909,562.837 L 547.489,563.155 C 547.576,563.267 547.639,563.359 547.676,563.433 C 547.712,563.508 547.757,563.645 547.812,563.844 C 548.016,564.592 547.944,565.301 547.596,565.971 C 547.249,566.643 546.717,567.076 546.004,567.271 C 545.825,567.319 545.696,567.344 545.617,567.343 C 545.539,567.343 545.476,567.341 545.431,567.343 L 545.087,567.757 C 545.023,567.852 545,567.937 545.02,568.012 C 545.057,568.147 545.144,568.257 545.281,568.344 C 545.416,568.429 545.587,568.512 545.788,568.591 Z M 544.844,565.969 C 544.931,566.287 545.06,566.511 545.233,566.645 C 545.405,566.78 545.599,566.817 545.808,566.76 C 546.241,566.641 546.535,566.233 546.689,565.535 C 546.845,564.835 546.843,564.193 546.683,563.603 C 546.593,563.276 546.457,563.056 546.272,562.94 C 546.088,562.828 545.884,562.801 545.664,562.861 C 545.241,562.977 544.963,563.388 544.825,564.092 C 544.689,564.797 544.695,565.421 544.844,565.969 Z M 545.656,569.831 C 545.005,570.223 544.511,570.585 544.172,570.92 C 543.833,571.255 543.729,571.657 543.857,572.129 C 543.983,572.589 544.324,572.911 544.881,573.091 C 545.44,573.271 546.029,573.277 546.649,573.108 C 547.311,572.927 547.784,572.657 548.064,572.3 C 548.344,571.94 548.443,571.605 548.357,571.292 C 548.263,570.945 547.873,570.645 547.193,570.392 Z "/>
			<path id="dp_path006" fill="#d70000" fill-rule="evenodd" d="M 552.684,556.092 C 553.411,555.893 553.915,555.719 554.195,555.567 C 554.477,555.417 554.804,555.176 555.179,554.845 L 555.409,554.885 C 555.329,555.507 555.275,556.012 555.247,556.405 C 555.219,556.797 555.169,557.608 555.097,558.839 C 555.025,560.067 554.961,561.239 554.904,562.352 C 554.844,563.464 554.813,564.147 554.808,564.396 C 554.804,564.647 554.8,565.021 554.801,565.519 C 554.801,566.016 554.813,566.308 554.836,566.391 C 554.888,566.581 554.981,566.656 555.119,566.619 C 555.265,566.579 555.447,566.412 555.661,566.119 C 555.875,565.825 556.095,565.488 556.317,565.107 L 556.675,565.352 C 556.263,566.035 555.865,566.576 555.485,566.979 C 555.103,567.379 554.78,567.616 554.517,567.687 C 554.349,567.733 554.2,567.733 554.069,567.689 C 553.94,567.645 553.841,567.501 553.775,567.259 C 553.72,567.057 553.688,566.843 553.681,566.611 C 553.675,566.38 553.684,565.964 553.709,565.367 C 553.604,565.597 553.495,565.823 553.385,566.039 C 553.276,566.256 553.095,566.573 552.843,566.992 C 552.591,567.411 552.291,567.772 551.945,568.075 C 551.599,568.379 551.295,568.567 551.033,568.637 C 550.76,568.712 550.532,568.669 550.347,568.511 C 550.163,568.352 550.028,568.116 549.941,567.8 C 549.796,567.263 549.769,566.581 549.865,565.751 C 549.961,564.924 550.161,564.095 550.465,563.265 C 550.769,562.437 551.168,561.769 551.661,561.261 C 552.156,560.755 552.583,560.452 552.939,560.355 C 553.179,560.289 553.377,560.289 553.531,560.355 C 553.684,560.421 553.816,560.512 553.927,560.629 C 553.968,559.748 553.997,558.923 554.015,558.155 C 554.031,557.388 554.013,556.909 553.961,556.719 C 553.901,556.499 553.791,556.381 553.628,556.371 C 553.467,556.357 553.148,556.416 552.672,556.545 Z M 551.613,562.947 C 551.347,563.675 551.169,564.433 551.077,565.22 C 550.988,566.008 551,566.607 551.112,567.019 C 551.175,567.249 551.248,567.393 551.331,567.449 C 551.413,567.505 551.508,567.52 551.613,567.491 C 552.14,567.348 552.703,566.564 553.304,565.139 C 553.905,563.715 554.055,562.451 553.753,561.345 C 553.639,560.925 553.403,560.764 553.044,560.863 C 552.876,560.908 552.653,561.109 552.379,561.467 C 552.103,561.824 551.848,562.319 551.613,562.947 Z "/>
			<path id="dp_path007" fill="#d70000" fill-rule="evenodd" d="M 556.355,561.457 C 556.472,561.223 556.603,560.957 556.748,560.663 C 556.893,560.369 557.081,560.064 557.311,559.748 C 557.54,559.429 557.723,559.219 557.857,559.113 C 557.993,559.009 558.108,558.944 558.203,558.919 C 558.413,558.861 558.569,558.895 558.671,559.019 C 558.772,559.144 558.847,559.296 558.896,559.475 L 558.989,559.94 L 559.112,561.195 C 559.137,561.085 559.195,560.909 559.28,560.665 C 559.367,560.421 559.441,560.207 559.503,560.021 C 559.751,559.399 559.999,558.951 560.244,558.673 C 560.491,558.397 560.699,558.237 560.867,558.192 C 560.964,558.176 561.065,558.179 561.175,558.201 C 561.281,558.224 561.357,558.315 561.401,558.475 C 561.461,558.699 561.444,558.972 561.345,559.295 C 561.248,559.619 561.108,559.805 560.929,559.853 L 560.852,559.875 C 560.828,559.871 560.756,559.865 560.635,559.859 C 560.515,559.851 560.439,559.852 560.407,559.861 C 560.176,559.924 559.969,560.167 559.784,560.589 C 559.601,561.012 559.44,561.489 559.301,562.017 C 559.164,562.545 559.073,563.197 559.031,563.971 C 558.988,564.745 558.971,565.52 558.98,566.297 C 558.675,566.38 558.449,566.459 558.307,566.533 C 558.163,566.607 558.001,566.687 557.821,566.771 L 557.736,566.709 C 557.889,565.199 557.992,563.84 558.048,562.633 C 558.101,561.425 558.087,560.669 558.004,560.364 C 557.955,560.185 557.863,560.115 557.725,560.152 C 557.568,560.195 557.423,560.333 557.289,560.568 C 557.156,560.801 556.967,561.16 556.728,561.644 Z "/>
			<path id="dp_path008" fill="#d70000" fill-rule="evenodd" d="M 568.04,555.953 L 568.101,555.987 C 567.939,557.249 567.816,558.309 567.74,559.165 C 567.661,560.021 567.628,560.709 567.641,561.231 C 567.653,561.752 567.664,562.091 567.672,562.247 C 567.681,562.401 567.703,562.548 567.74,562.685 C 567.795,562.884 567.891,562.967 568.028,562.928 C 568.164,562.892 568.34,562.707 568.556,562.379 C 568.771,562.049 568.977,561.701 569.169,561.332 L 569.549,561.533 C 569.287,562.101 568.969,562.656 568.597,563.199 C 568.227,563.741 567.851,564.063 567.473,564.167 C 567.231,564.232 567.048,564.18 566.923,564.011 C 566.797,563.843 566.711,563.667 566.661,563.488 C 566.588,563.215 566.543,562.961 566.531,562.728 C 566.517,562.495 566.504,562.108 566.492,561.569 C 566.324,561.945 566.136,562.323 565.929,562.703 C 565.721,563.083 565.54,563.397 565.383,563.645 C 565.224,563.895 564.989,564.191 564.679,564.536 C 564.365,564.883 564.048,565.101 563.723,565.189 C 563.468,565.259 563.249,565.208 563.061,565.039 C 562.875,564.869 562.74,564.636 562.66,564.341 C 562.499,563.752 562.508,562.991 562.689,562.057 C 562.869,561.125 563.205,560.24 563.7,559.405 C 564.195,558.568 564.632,557.997 565.013,557.696 C 565.393,557.393 565.776,557.191 566.165,557.085 C 566.385,557.025 566.649,556.98 566.959,556.952 L 567.013,556.349 Z M 563.855,563.44 C 563.96,563.828 564.129,563.992 564.36,563.929 C 564.601,563.864 564.903,563.519 565.261,562.896 C 565.623,562.272 565.911,561.704 566.127,561.195 C 566.343,560.684 566.508,560.084 566.627,559.399 C 566.745,558.711 566.772,558.252 566.708,558.02 C 566.651,557.811 566.525,557.704 566.333,557.7 C 566.14,557.696 565.967,557.721 565.811,557.775 C 565.16,558.031 564.62,558.857 564.195,560.256 C 563.771,561.653 563.656,562.715 563.855,563.44 Z "/>
			<path id="dp_path009" fill="#d70000" fill-rule="evenodd" d="M 574.596,562.088 C 575.507,562.403 576.019,562.765 576.131,563.176 C 576.297,563.784 576.128,564.403 575.627,565.029 C 575.125,565.659 574.363,566.111 573.339,566.391 C 572.364,566.656 571.483,566.688 570.695,566.487 C 569.907,566.284 569.435,565.893 569.277,565.317 C 569.228,565.139 569.227,564.936 569.272,564.708 C 569.317,564.483 569.432,564.237 569.613,563.973 C 569.796,563.709 570.055,563.455 570.388,563.212 C 570.723,562.969 571.173,562.685 571.739,562.361 C 571.379,562.189 571.112,562.021 570.944,561.851 C 570.776,561.683 570.668,561.515 570.621,561.347 C 570.576,561.179 570.597,561.025 570.687,560.891 C 570.776,560.752 571.056,560.456 571.529,560 C 571.252,559.895 571.001,559.736 570.775,559.527 C 570.548,559.317 570.377,559.001 570.263,558.579 C 570.052,557.812 570.123,557.095 570.475,556.433 C 570.825,555.771 571.365,555.341 572.091,555.144 C 572.448,555.047 572.74,555.023 572.964,555.077 C 573.187,555.129 573.42,555.225 573.661,555.364 L 575.352,554.804 L 575.56,555.567 L 574.139,555.884 C 574.225,555.996 574.288,556.088 574.325,556.163 C 574.363,556.237 574.408,556.375 574.463,556.573 C 574.667,557.321 574.595,558.031 574.247,558.7 C 573.899,559.372 573.368,559.805 572.653,560 C 572.475,560.049 572.347,560.073 572.267,560.072 C 572.188,560.072 572.125,560.071 572.08,560.072 L 571.736,560.487 C 571.672,560.581 571.649,560.667 571.671,560.741 C 571.707,560.876 571.793,560.987 571.931,561.073 C 572.065,561.159 572.236,561.241 572.437,561.32 Z M 571.495,558.699 C 571.581,559.016 571.709,559.24 571.884,559.375 C 572.056,559.509 572.248,559.547 572.457,559.489 C 572.891,559.371 573.184,558.963 573.34,558.264 C 573.496,557.564 573.493,556.923 573.332,556.332 C 573.243,556.005 573.107,555.785 572.923,555.669 C 572.737,555.557 572.535,555.531 572.313,555.592 C 571.892,555.707 571.612,556.117 571.476,556.821 C 571.339,557.527 571.345,558.151 571.495,558.699 Z M 572.307,562.56 C 571.656,562.952 571.16,563.315 570.821,563.649 C 570.483,563.984 570.379,564.387 570.508,564.859 C 570.633,565.319 570.973,565.64 571.532,565.82 C 572.091,566 572.68,566.007 573.3,565.837 C 573.96,565.657 574.435,565.387 574.715,565.029 C 574.995,564.669 575.092,564.335 575.007,564.021 C 574.912,563.675 574.524,563.375 573.844,563.121 Z "/>
			<path id="dp_path010" fill="#d70000" fill-rule="evenodd" d="M 581.527,555.025 C 581.828,556.129 581.74,557.323 581.269,558.611 C 580.796,559.896 580.015,560.688 578.923,560.987 C 578.333,561.147 577.803,561.091 577.329,560.82 C 576.855,560.548 576.517,560.049 576.32,559.324 C 576.011,558.189 576.093,556.973 576.567,555.675 C 577.043,554.377 577.816,553.581 578.885,553.289 C 579.505,553.12 580.055,553.199 580.533,553.525 C 581.012,553.852 581.343,554.352 581.527,555.025 Z M 577.631,559.265 C 577.751,559.705 577.919,560.033 578.135,560.252 C 578.351,560.468 578.611,560.535 578.915,560.452 C 579.575,560.272 580.02,559.569 580.255,558.347 C 580.487,557.123 580.468,556.007 580.193,555 C 580.079,554.581 579.909,554.265 579.689,554.049 C 579.465,553.835 579.172,553.776 578.805,553.876 C 578.103,554.136 577.672,554.889 577.519,556.136 C 577.363,557.383 577.401,558.425 577.631,559.265 Z "/>
			<path id="dp_path011" fill="#d70000" fill-rule="evenodd" d="M 588.421,553.144 C 588.723,554.248 588.635,555.443 588.164,556.729 C 587.691,558.015 586.909,558.807 585.817,559.105 C 585.228,559.265 584.697,559.211 584.224,558.939 C 583.749,558.668 583.412,558.169 583.215,557.444 C 582.905,556.309 582.988,555.092 583.461,553.793 C 583.937,552.496 584.711,551.7 585.78,551.408 C 586.4,551.24 586.949,551.317 587.428,551.645 C 587.907,551.972 588.237,552.472 588.421,553.144 Z M 584.525,557.384 C 584.645,557.824 584.813,558.153 585.029,558.371 C 585.245,558.587 585.505,558.653 585.809,558.571 C 586.469,558.391 586.915,557.689 587.149,556.465 C 587.381,555.241 587.363,554.125 587.088,553.12 C 586.973,552.7 586.804,552.384 586.584,552.168 C 586.36,551.953 586.067,551.895 585.7,551.995 C 584.997,552.256 584.567,553.008 584.413,554.256 C 584.257,555.501 584.296,556.544 584.525,557.384 Z "/>
			<path id="dp_path012" fill="#d70000" fill-rule="evenodd" d="M 589.345,552.476 C 589.64,551.809 589.931,551.248 590.22,550.792 C 590.509,550.336 590.843,550.055 591.223,549.952 C 591.613,549.845 591.871,550.019 591.993,550.468 C 592.06,550.711 592.091,550.972 592.089,551.255 C 592.087,551.537 592.068,551.887 592.035,552.301 L 591.904,553.572 C 591.955,553.388 592.056,553.104 592.204,552.72 C 592.353,552.335 592.541,551.884 592.773,551.364 C 593.003,550.845 593.345,550.332 593.799,549.824 C 594.252,549.317 594.657,549.015 595.013,548.917 C 595.244,548.855 595.437,548.867 595.596,548.953 C 595.756,549.04 595.871,549.215 595.943,549.476 C 596.028,549.792 596.041,550.147 595.98,550.54 C 595.917,550.936 595.807,551.596 595.647,552.525 C 595.488,553.455 595.38,554.139 595.324,554.576 C 595.269,555.013 595.256,555.291 595.288,555.405 C 595.349,555.503 595.399,555.545 595.441,555.533 C 595.569,555.499 595.735,555.352 595.941,555.092 C 596.148,554.835 596.38,554.443 596.635,553.923 L 597.048,554.135 L 596.476,555.144 C 596.184,555.611 595.896,555.971 595.609,556.227 C 595.323,556.481 595.084,556.633 594.895,556.685 C 594.727,556.731 594.573,556.719 594.436,556.649 C 594.299,556.58 594.201,556.437 594.144,556.228 C 594.069,555.955 594.101,555.375 594.245,554.487 C 594.388,553.597 594.535,552.707 594.688,551.812 C 594.84,550.916 594.885,550.357 594.824,550.136 C 594.787,549.999 594.7,549.949 594.564,549.987 C 594.343,550.047 594.041,550.352 593.661,550.901 C 593.279,551.451 592.929,552.175 592.607,553.068 C 592.288,553.963 592.061,554.749 591.932,555.429 C 591.8,556.107 591.704,556.771 591.643,557.42 L 590.547,557.871 L 590.497,557.817 L 590.697,556.123 C 590.817,555.028 590.916,554.029 590.992,553.123 C 591.068,552.217 591.071,551.639 591.001,551.387 C 590.953,551.208 590.865,551.137 590.74,551.171 C 590.612,551.205 590.463,551.364 590.291,551.647 C 590.12,551.929 589.94,552.269 589.755,552.667 Z "/>
		</g>
		<path id="dp_path013" fill="url(#grad_dp_002)" fill-rule="evenodd" d="M 427.805,530.335 L 513.383,412.259 C 401.437,329.661 392.059,209.943 451.921,65.1667 C 509.579,-74.2773 643.557,-53.2827 763.479,2.06533 C 629.173,33.684 636.219,98.108 671.505,169.084 C 744.965,316.844 749.483,410.036 684.281,473.94 C 608.021,548.68 519.749,562.861 433.705,570.588 Z "/>
		<path id="dp_path014" fill="url(#grad_dp_003)" fill-rule="evenodd" stroke="black" stroke-width="2.66667" d="M 415.421,122.68 C 412.232,92.4587 392.427,63.3373 373,41.2413 C 380.304,50.0053 421.48,61.3827 447.491,40.6333 C 516.26,46.152 560.84,65.688 580.055,110.623 C 600.671,158.837 603.925,196.343 583.664,225.097 Z "/>
		<path id="dp_path015" fill="url(#grad_dp_004)" fill-rule="evenodd" d="M 418.607,124.316 C 414.679,99.352 407.752,66.9307 386.683,54.0227 C 394.388,59.2613 417.483,64.0253 446.436,51.1667 C 510.04,56.2613 552.249,74.6213 570.021,116.1 C 589.089,160.608 591.123,194.903 572.383,221.445 Z "/>
		<path id="dp_path016" fill="none" fill-rule="evenodd" stroke="black" stroke-width="2.66667" d="M 449.245,51.6333 C 436.085,80.1 436.031,94.684 437.944,120.033"/>
		<path id="dp_path017" fill="none" fill-rule="evenodd" stroke="black" stroke-width="2.66667" d="M 481.481,55.5 C 471.771,77.0107 464.904,98.5227 461.333,120.033"/>
		<path id="dp_path018" fill="none" fill-rule="evenodd" stroke="black" stroke-width="2.66667" d="M 520.52,67.2613 C 503.077,86.016 491.929,106.143 487.333,127.7"/>
		<path id="dp_path019" fill="none" fill-rule="evenodd" stroke="black" stroke-width="2.66667" d="M 553.605,87.1427 C 533.528,102.175 519.644,119.28 512.667,138.7"/>
		<path id="dp_path020" fill="none" fill-rule="evenodd" stroke="black" stroke-width="2.66667" d="M 570.156,119.767 C 554.756,129.728 542.812,142.48 534.333,158.033"/>
		<path id="dp_path021" fill="none" fill-rule="evenodd" stroke="black" stroke-width="2.66667" d="M 580.936,150.1 C 568.408,153.736 559.808,162.444 552.667,173.033"/>
		<path id="dp_path022" fill="none" fill-rule="evenodd" stroke="black" stroke-width="2.66667" d="M 584.573,185.033 C 577.235,185.283 570.608,189.041 567.333,193.7"/>
		<path id="dp_path023" fill="none" fill-rule="evenodd" stroke="black" stroke-width="2.66667" d="M 345.272,65.1773 C 368.949,80.0173 392.161,95.1333 399.659,119.483"/>
		<path id="dp_path024" fill="none" fill-rule="evenodd" stroke="black" stroke-width="2.66667" d="M 389.396,56.9 C 404.911,70.2613 414,90.6827 418,116.7"/>
		<path id="dp_path025" fill="url(#grad_dp_005)" fill-rule="evenodd" stroke="black" stroke-width="2.66667" d="M 431,377.7 C 330.392,372.567 237.867,294.957 250,241.7 C 257.956,206.78 271.273,179.417 323.756,190.232 C 331.435,154.412 379.027,109.675 429.72,115.396 C 526.156,126.28 560.247,177.82 578,222.448 C 584.619,202.756 599.636,198.904 611.776,215.825 C 621.821,229.828 626.781,258.108 623.696,284.7 C 620.588,311.492 591.593,302.72 578,284.7 C 578,293.751 580.307,303.101 578,311.853 C 568.852,346.552 540.195,365.728 471,375.7 C 471.789,379.957 467.179,385.191 470,388.7 C 473.303,392.808 476.409,391.42 482.667,394.367 C 509.7,407.097 547.472,454.201 620.667,442.367 L 611.333,467.033 C 536.58,479.469 526.867,454.343 496.608,441.232 C 521.221,464.015 535.571,489.533 533.695,519.377 L 365.479,512.755 L 394,432.367 C 383.441,442.644 363.152,451.172 338.46,455.339 C 333.001,456.26 327.919,458.351 320.667,455.7 C 295.635,446.551 273.032,422.491 265.333,414.367 L 261.333,376.367 C 274.956,398.273 302.533,420.555 329.333,429.7 C 358.257,421.281 393.167,403.127 412.667,389.033 C 417.003,385.899 424.976,392.8 428.333,389.033 C 431.008,386.031 428.964,381.124 431,377.7 Z "/>
		<path id="dp_path026" fill="#ffdac5" fill-rule="evenodd" d="M 393,449.7 C 397.415,436.233 428.399,405.405 432,391.7 C 440.344,359.945 407.503,363.849 359,330.7 C 331.281,311.756 348.231,296.301 376.881,298.911 C 410.175,301.943 443.272,301.179 496.608,273.677 C 550.577,245.849 568.355,285.157 556.212,317.387 C 542.612,353.483 498.375,354.475 466.144,375.667 C 451.757,385.127 462.833,465.735 462.833,482.953 L 412.16,471.695 Z "/>
		<path id="dp_path027" fill="yellow" fill-rule="evenodd" stroke="black" stroke-width="2.66667" d="M 429,385.7 C 421.273,380.993 410.727,382.339 403,384.7 C 382.783,410.969 394.668,416.097 385.333,442.367 C 328.861,463.519 319.845,537.905 376.739,612.096 L 492.635,618.719 C 508.836,595.237 528.229,578.935 536.344,537.26 C 544.432,495.725 522.141,461.352 483.333,445.7 C 480.257,427.381 487.48,409.484 495,394.7 C 487.144,389.839 481.396,383.719 470,387.7 C 450.185,412.204 435.627,441.196 424.667,465.7 C 420.1,440.84 421.197,412.328 429,385.7 Z "/>
		<path id="dp_path028" fill="black" fill-rule="evenodd" d="M 583.565,232.461 C 596.443,234.825 599.383,245.753 601.357,257.577 C 602.505,264.456 600.821,285.193 582.519,275.367 C 596.739,287.617 607,269.241 606.067,256.531 C 604.635,237.003 597.967,225.303 583.565,232.461 Z "/>
		<path id="dp_path029" fill="#9c4c00" fill-rule="evenodd" stroke="black" stroke-width="2.66667" d="M 229.579,189.548 C 240.924,164.66 270.427,157.645 292.891,172.303 S 326.588,214.433 311.996,237.109 S 272.28,268.192 249.716,255.417 S 218.232,214.435 229.579,189.548 Z "/>
		<path id="dp_path030" fill="#fc8820" fill-rule="evenodd" stroke="black" stroke-width="2.66667" d="M 406.949,605.135 C 355.601,577.781 292.376,547.052 251.44,580.632 C 216.089,609.631 247.48,651.149 313.751,658.116 C 342.705,661.16 372.472,653.151 410.677,641.56 C 429.195,635.943 424.023,614.229 406.949,605.135 Z "/>
		<path id="dp_path031" fill="maroon" fill-rule="evenodd" stroke="black" stroke-width="2.66667" d="M 237.595,598.512 C 252.861,582.896 268.128,587.193 283.395,610.433 C 303.664,641.287 359.536,639.976 418.133,636.261 C 413.685,644.756 360.509,660.699 305.763,656.792 C 265.945,649.323 231.787,637.897 237.595,598.512 Z "/>
		<path id="dp_path032" fill="#fc8820" fill-rule="evenodd" stroke="black" stroke-width="2.66667" d="M 437.973,604.301 C 490.288,586.365 554.351,567.199 589.473,607.677 C 619.803,642.635 584.873,678.124 520.724,673.248 C 492.697,671.117 465.208,657.911 430.081,639.664 C 413.056,630.821 420.579,610.265 437.973,604.301 Z "/>
		<path id="dp_path033" fill="maroon" fill-rule="evenodd" stroke="black" stroke-width="2.66667" d="M 600.577,627.82 C 587.847,609.664 572.749,611.204 555.399,631.479 C 532.364,658.395 479.133,647.177 423.587,633.1 C 426.827,642.292 475.74,667.5 528.515,673.356 C 567.448,673.039 601.444,667.804 600.577,627.82 Z "/>
		<g id="dp_group034">
			<path id="dp_path035" fill="yellow" fill-rule="evenodd" stroke="black" stroke-width="2.66667" d="M 608.933,438.827 C 611.625,452.371 610.299,465.34 599.917,477.017 C 606.084,478.629 612.352,479.399 619.251,474.852 C 617.432,483.045 618.028,484.508 616.393,493.104 C 609.357,495.021 605.363,497.421 603.427,499.885 C 598.58,506.052 606.629,512.64 612.179,513.133 C 623.004,514.095 629.548,510.409 637.917,506.008 C 644.119,502.747 650.595,490.783 647.012,482.104 C 659.043,474.773 684.717,472.375 705.12,473.505 C 725.892,474.657 738.955,472.945 748.919,468.851 C 758.867,464.763 774.553,452.207 759.495,447.323 C 768.62,444.951 777.804,429.199 764.436,424.673 C 760.071,423.195 756.791,422.905 753.136,420.14 C 738.776,409.277 668.34,409.653 627.728,429.643 C 619.343,427.991 612.971,430.816 608.933,438.827 Z "/>
			<path id="dp_path036" fill="yellow" fill-rule="evenodd" stroke="black" stroke-width="2.66667" d="M 753.948,422.225 C 730.532,420.148 701.201,423.169 662.676,431.921"/>
			<path id="dp_path037" fill="yellow" fill-rule="evenodd" stroke="black" stroke-width="2.66667" d="M 757.221,447.125 C 736.367,443.488 695.819,447.824 659.917,453.632"/>
		</g>
		<g id="dp_group038">
			<path id="dp_path039" fill="yellow" fill-rule="evenodd" stroke="black" stroke-width="2.66667" d="M 285.857,396.303 L 267.78,424.176 C 256.471,424.629 249.74,420.996 245.405,415.229 C 229.396,426.673 211.045,429.809 184.729,404.675 C 177.356,397.632 173.161,390.985 177.773,382.468 C 156.587,390.385 160.956,374.476 171.885,352.451 C 175.736,344.077 182.311,339.884 194.468,341.088 C 198.259,332.916 198.191,322.305 211.323,321.62 C 199.013,297.175 190.369,289.903 187.507,262.081 C 186.169,249.083 207.832,232.645 209.528,243.939 C 214.481,276.905 231.215,303.743 250.381,333.397 C 268.585,336.104 289.103,345.076 294.083,354.188 C 299.347,363.823 283.723,375.237 268.961,384.425 C 277.507,385.788 284.285,388.72 285.857,396.303 Z "/>
			<path id="dp_path040" fill="yellow" fill-rule="evenodd" stroke="black" stroke-width="2.66667" d="M 212.629,322.921 C 215.541,328.123 219.281,332.78 222.016,338.712"/>
			<path id="dp_path041" fill="yellow" fill-rule="evenodd" stroke="black" stroke-width="2.66667" d="M 252.197,333.989 C 240.159,334.064 230.567,335.993 224.109,340.297 C 201.344,355.469 201.456,366.868 207.467,373.875 C 223.295,392.325 248.735,379.556 262.061,363.16"/>
			<path id="dp_path042" fill="yellow" fill-rule="evenodd" stroke="black" stroke-width="2.66667" d="M 195.253,341.373 C 190.339,350.044 185.651,361.304 188.853,371.243 C 191.981,380.949 199.421,374.804 207.484,368.928"/>
			<path id="dp_path043" fill="yellow" fill-rule="evenodd" stroke="black" stroke-width="2.66667" d="M 176.661,384.145 L 189.865,370.244"/>
		</g>
		<path id="dp_path044" fill="white" fill-rule="evenodd" stroke="black" stroke-width="2.66667" d="M 330.393,191.657 C 349.325,163.841 367.291,126.071 389.997,137.121 C 403.052,143.473 403.985,153.837 401.255,165.904 C 408.092,151.249 416.444,138.827 435.693,142.423 C 459.989,146.961 460.821,186.791 460,225.7 C 466.589,238.524 484.093,243.779 497.947,254.525 C 409.841,211.075 346.079,184.603 330.393,191.657 Z "/>
		<path id="dp_path045" fill="black" fill-rule="evenodd" stroke="black" stroke-width="2.66667" d="M 374.229,168.653 L 381.592,177.488 L 371.647,178.008 C 371.028,188.611 372.909,195.383 379.525,194.897 C 385.589,194.452 389.305,185.227 390.951,179.38 C 392.487,173.921 392.287,161.613 387.017,160.339 C 381.223,158.937 377.175,161.741 374.229,168.653 Z "/>
		<path id="dp_path046" fill="black" fill-rule="evenodd" stroke="black" stroke-width="2.66667" d="M 404.175,176.929 L 411.931,186.1 L 401.453,186.639 C 400.803,197.644 402.784,204.672 409.753,204.169 C 416.14,203.707 420.055,194.132 421.788,188.063 C 423.405,182.397 423.195,169.623 417.645,168.3 C 411.541,166.845 407.277,169.756 404.175,176.929 Z "/>
		<g id="dp_group047">
			<path id="dp_path048" fill="black" fill-rule="evenodd" d="M 362.517,319.313 C 379.119,320.584 395.256,321.48 402.423,323.123 C 425.489,371.225 454.055,378.431 465.003,369.785 C 483.477,355.195 465.977,346.957 476.373,315.72 C 491.595,304.257 509.665,297.999 528.549,293.227 L 532.824,318.913 C 535.901,293.605 530.424,281.035 520.577,274.968 L 527.472,290.467 C 496.775,299.257 466.648,314.971 442.62,316.981 C 412.731,319.483 388.433,319.164 362.517,319.313 Z "/>
			<path id="dp_path049" fill="url(#grad_dp_006)" fill-rule="evenodd" stroke="black" stroke-width="2.66667" d="M 406.459,320.604 L 420.728,345.421 L 437.975,342.776 L 433.256,323.605 L 440.64,342.676 L 459.935,341.288 L 454.351,316.813 C 439.303,318.775 421.573,320.42 406.459,320.604 Z "/>
			<path id="dp_path050" fill="#d70000" fill-rule="evenodd" d="M 444.659,357.068 C 446.757,357.289 447.487,360.205 448.901,361.773 C 450.203,363.217 449.307,357.559 450.728,356.233 C 455.387,351.892 465.448,350.199 471.793,350.703 C 471.115,355.285 470.412,359.211 469.697,362.821 C 468.055,371.113 457.939,372.761 448.164,371.287 C 440.531,370.135 434.272,364.105 428.009,358.176 C 433.755,354.719 433.317,355.871 444.659,357.068 Z "/>
			<path id="dp_path051" fill="url(#grad_dp_007)" fill-rule="evenodd" stroke="black" stroke-width="2.66667" d="M 435.067,354.225 L 447.656,369.767 C 455.087,372.245 462.409,371.811 469.441,363.615 L 458.235,349.357 L 450.315,351.655 L 456.068,362.78 L 445.676,352.495 Z "/>
		</g>
		<path id="dp_path052" fill="none" fill-rule="evenodd" stroke="black" stroke-width="2.66667" d="M 411.935,538.367 C 409.688,565.696 414.965,590.595 423.731,614.367"/>
		<path id="dp_path053" fill="none" fill-rule="evenodd" stroke="black" stroke-width="2.66667" d="M 384,528.367 C 403.112,539.255 424,539.479 446.667,529.033"/>
		<path id="dp_path054" fill="#ffd5bf" fill-rule="evenodd" d="M 242.669,180.968 C 248.211,173.493 260.331,170.059 268.765,172.991 S 280.619,182.975 273.861,189.999 S 256.688,200.624 248.139,198.219 S 237.128,188.443 242.669,180.968 Z "/>
		<path id="dp_path055" fill="black" fill-rule="evenodd" d="M 357.333,117.621 C 381.604,122.473 400.765,128.785 408.107,138.475 C 437.217,131.319 465.433,135.797 493.335,144.368 C 463.76,131.857 434.633,121.255 409.92,129.408 C 397.447,117.263 379.477,114.051 357.333,117.621 Z "/>
	</g>
</svg>